<svg width="27" height="27" viewBox="0 0 27 27" fill="none" xmlns="http://www.w3.org/2000/svg">
<path d="M13.513 26.579C10.9417 26.5743 8.42968 25.8071 6.29445 24.3746C4.15921 22.9421 2.49671 20.9086 1.51723 18.5312C0.537735 16.1539 0.285244 13.5395 0.79167 11.0186C1.2981 8.4977 2.54068 6.18362 4.36232 4.36898C6.18395 2.55434 8.50281 1.32063 11.0256 0.823906C13.5484 0.32718 16.1619 0.589734 18.5354 1.57836C20.909 2.56699 22.9361 4.23728 24.3604 6.37801C25.7847 8.51874 26.5421 11.0338 26.537 13.605C26.5301 17.0525 25.1541 20.356 22.7117 22.7891C20.2693 25.2221 16.9605 26.5854 13.513 26.579ZM2.851 13.571C2.84902 15.6843 3.47358 17.7507 4.64573 19.5091C5.81789 21.2676 7.48501 22.639 9.43641 23.4502C11.3878 24.2614 13.5359 24.4759 15.6092 24.0666C17.6824 23.6572 19.5878 22.6425 21.0845 21.1505C22.5812 19.6586 23.602 17.7564 24.018 15.6845C24.4339 13.6125 24.2262 11.4638 23.4212 9.50979C22.6163 7.55582 21.2501 5.88433 19.4954 4.7066C17.7407 3.52886 15.6763 2.89774 13.563 2.893C12.1584 2.8905 10.7671 3.16475 9.46858 3.70007C8.17003 4.23538 6.98967 5.02127 5.99492 6.01287C5.00016 7.00447 4.21051 8.18234 3.67106 9.47918C3.13162 10.776 2.85296 12.1664 2.851 13.571Z" fill="black"/>
<path d="M14.983 14.627C14.983 15.806 15.001 16.984 14.975 18.162C14.961 18.799 15.192 19.124 15.855 19.07C16.466 19.02 16.755 19.294 16.718 19.915C16.702 20.178 16.718 20.444 16.713 20.708C16.7242 20.7988 16.7146 20.891 16.6848 20.9775C16.6549 21.064 16.6057 21.1426 16.5409 21.2071C16.476 21.2717 16.3972 21.3206 16.3106 21.35C16.224 21.3795 16.1317 21.3887 16.041 21.377C14.381 21.381 12.7216 21.381 11.063 21.377C10.9667 21.3902 10.8687 21.3807 10.7768 21.3492C10.6849 21.3178 10.6015 21.2653 10.5335 21.1959C10.4655 21.1265 10.4147 21.0422 10.3851 20.9497C10.3554 20.8571 10.3479 20.759 10.363 20.663C10.363 20.374 10.363 20.085 10.363 19.797C10.354 19.279 10.618 19.079 11.121 19.061C12.03 19.029 12.094 18.948 12.095 18.045C12.095 16.458 12.084 14.87 12.102 13.283C12.109 12.673 11.868 12.374 11.248 12.424C10.595 12.478 10.311 12.179 10.36 11.531C10.378 11.292 10.36 11.05 10.36 10.809C10.36 10.33 10.607 10.109 11.078 10.109C12.136 10.109 13.194 10.114 14.252 10.109C14.826 10.109 14.99 10.428 14.984 10.943C14.975 12.174 14.982 13.401 14.983 14.627Z" fill="black"/>
<path d="M14.975 6.35602C14.9757 6.64315 14.8906 6.92393 14.7307 7.16242C14.5708 7.40091 14.3433 7.58623 14.0775 7.69464C13.8116 7.80306 13.5194 7.82964 13.2383 7.77097C12.9572 7.71229 12.7001 7.57103 12.4998 7.3653C12.2995 7.15956 12.1652 6.89873 12.1141 6.61618C12.0629 6.33364 12.0973 6.04224 12.2128 5.77936C12.3283 5.51648 12.5196 5.29408 12.7623 5.14063C13.005 4.98717 13.288 4.90964 13.575 4.918C13.9485 4.93162 14.3024 5.08867 14.5632 5.35648C14.8239 5.62429 14.9714 5.98227 14.975 6.35602Z" fill="black"/>
</svg>
