<svg width="27" height="28" viewBox="0 0 27 28" fill="none" xmlns="http://www.w3.org/2000/svg">
    <path
        d="M25.187 6.46509C25.187 7.52809 25.187 8.59004 25.187 9.65204C25.2067 10.0027 25.1524 10.3535 25.0275 10.6817C24.9026 11.0099 24.7099 11.3081 24.462 11.5569C24.2142 11.8057 23.9167 11.9995 23.589 12.1256C23.2613 12.2518 22.9107 12.3075 22.5601 12.2891C20.4234 12.2951 18.2867 12.2951 16.15 12.2891C15.8052 12.3083 15.4601 12.2557 15.1367 12.1346C14.8133 12.0134 14.5185 11.8264 14.2712 11.5853C14.024 11.3442 13.8295 11.0544 13.7002 10.7341C13.5709 10.4139 13.5095 10.0702 13.52 9.72504C13.492 7.55304 13.492 5.38074 13.52 3.20807C13.5055 2.86537 13.5622 2.52335 13.6865 2.20368C13.8109 1.884 14.0002 1.59359 14.2424 1.35077C14.4847 1.10795 14.7746 0.917993 15.094 0.792909C15.4134 0.667825 15.7553 0.610368 16.098 0.624086C18.27 0.592753 20.4423 0.592753 22.615 0.624086C22.9633 0.611532 23.3103 0.672274 23.6337 0.80237C23.957 0.932465 24.2495 1.12899 24.4921 1.37927C24.7346 1.62956 24.9219 1.92799 25.0418 2.25525C25.1616 2.58251 25.2115 2.93131 25.188 3.27905C25.19 4.34105 25.187 5.40009 25.187 6.46509ZM15.187 6.45209V8.74408C15.1737 8.99312 15.2125 9.24217 15.3012 9.47528C15.3898 9.70839 15.5263 9.92036 15.7018 10.0976C15.8772 10.2748 16.0878 10.4135 16.32 10.5045C16.5521 10.5955 16.8009 10.6369 17.0501 10.626C18.5887 10.6434 20.1283 10.6434 21.6689 10.626C21.9033 10.639 22.138 10.6046 22.3588 10.5248C22.5795 10.445 22.782 10.3214 22.954 10.1616C23.1259 10.0018 23.2639 9.80896 23.3596 9.59461C23.4553 9.38025 23.5068 9.14878 23.511 8.91406C23.549 7.27906 23.545 5.64306 23.511 4.00806C23.5205 3.57562 23.3593 3.15684 23.0623 2.84241C22.7652 2.52798 22.3562 2.34321 21.924 2.32807C20.256 2.26807 18.583 2.24908 16.916 2.30908C16.6776 2.30558 16.4412 2.35203 16.2218 2.4455C16.0025 2.53896 15.8051 2.67736 15.6425 2.85175C15.4799 3.02613 15.3555 3.23261 15.2776 3.45795C15.1997 3.68329 15.1698 3.92245 15.1899 4.16004C15.1769 4.92404 15.19 5.68809 15.189 6.45209H15.187Z"
        fill="#828282" />
    <path
        d="M6.00092 25.626C4.96292 25.626 3.92493 25.626 2.88593 25.626C2.52366 25.653 2.15986 25.6015 1.8194 25.4748C1.47894 25.3481 1.16984 25.1492 0.913395 24.8919C0.65695 24.6346 0.459251 24.325 0.333683 23.9841C0.208115 23.6432 0.157724 23.2792 0.185978 22.917C0.180644 20.8157 0.180644 18.7157 0.185978 16.617C0.149884 16.0388 0.317589 15.4662 0.659977 14.9989C1.00236 14.5315 1.49779 14.199 2.06 14.059C2.34919 13.9881 2.64619 13.9545 2.94391 13.959C4.99591 13.951 7.04823 13.951 9.10089 13.959C9.47228 13.9267 9.8462 13.9765 10.1962 14.1048C10.5463 14.233 10.8639 14.4366 11.1265 14.7011C11.3892 14.9657 11.5904 15.2847 11.7161 15.6356C11.8418 15.9866 11.8889 16.3609 11.8539 16.732C11.8539 18.7987 11.8539 20.863 11.8539 22.925C11.8829 23.2873 11.833 23.6515 11.7077 23.9927C11.5824 24.3338 11.3846 24.6438 11.128 24.9012C10.8714 25.1586 10.562 25.3573 10.2213 25.4836C9.88048 25.6099 9.51637 25.6609 9.154 25.633C8.101 25.629 7.05092 25.626 6.00092 25.626ZM6.00092 23.966C6.77692 23.966 7.55392 23.977 8.32892 23.966C8.5722 23.9781 8.81537 23.9398 9.04316 23.8535C9.27094 23.7672 9.47841 23.6348 9.65265 23.4646C9.82689 23.2944 9.96414 23.0901 10.0557 22.8644C10.1473 22.6387 10.1914 22.3965 10.185 22.153C10.209 20.5777 10.209 19.002 10.185 17.426C10.1954 17.1944 10.1582 16.963 10.0759 16.7462C9.99352 16.5294 9.8677 16.3317 9.70612 16.1654C9.54454 15.999 9.35061 15.8675 9.1363 15.7788C8.92199 15.6902 8.69179 15.6464 8.4599 15.65C6.8499 15.6034 5.23933 15.6017 3.62799 15.645C3.38369 15.6386 3.14067 15.6837 2.91498 15.7774C2.68929 15.8712 2.48597 16.0115 2.31818 16.1892C2.15039 16.3669 2.0219 16.578 1.94123 16.8087C1.86055 17.0394 1.82944 17.2845 1.84992 17.528C1.83125 19.032 1.83125 20.536 1.84992 22.04C1.83211 22.3013 1.87118 22.5634 1.96442 22.8082C2.05766 23.053 2.20293 23.2747 2.39008 23.4579C2.57723 23.6412 2.80184 23.7816 3.04853 23.8697C3.29521 23.9578 3.55802 23.9913 3.81891 23.968C4.54191 23.97 5.26999 23.966 5.99799 23.966H6.00092Z"
        fill="#828282" />
    <path
        d="M5.99908 12.29C4.94908 12.29 3.89905 12.29 2.84905 12.29C2.4955 12.3116 2.14138 12.2583 1.80987 12.1335C1.47836 12.0088 1.17694 11.8154 0.925347 11.5661C0.673754 11.3168 0.477653 11.0171 0.349907 10.6867C0.222161 10.3563 0.165609 10.0027 0.184014 9.64898C0.174014 7.52498 0.174014 5.40097 0.184014 3.27697C0.163075 2.926 0.216208 2.57459 0.339775 2.24542C0.463342 1.91625 0.654574 1.6167 0.901299 1.36621C1.14802 1.11571 1.44465 0.919864 1.7719 0.791318C2.09916 0.662772 2.44983 0.60438 2.80108 0.619992C4.94908 0.599326 7.09705 0.599326 9.24505 0.619992C9.59624 0.604193 9.94678 0.662626 10.2739 0.791501C10.6009 0.920376 10.8972 1.1168 11.1432 1.36792C11.3893 1.61903 11.5796 1.91919 11.7017 2.24884C11.8239 2.57848 11.8751 2.93021 11.8521 3.281C11.8521 5.40634 11.8521 7.53066 11.8521 9.65399C11.8703 10.0045 11.8147 10.3549 11.689 10.6826C11.5633 11.0102 11.3702 11.3079 11.1222 11.5563C10.8743 11.8046 10.5769 11.9982 10.2494 12.1244C9.92196 12.2506 9.57152 12.3067 9.221 12.289C8.147 12.294 7.07708 12.29 5.99908 12.29ZM10.189 6.44201C10.189 5.69001 10.195 4.94197 10.189 4.18597C10.2114 3.95187 10.1851 3.71571 10.1119 3.49225C10.0386 3.26878 9.91999 3.06286 9.76336 2.88745C9.60673 2.71203 9.41549 2.57089 9.20171 2.4729C8.98794 2.3749 8.75618 2.32216 8.52105 2.31799C6.86605 2.25099 5.20303 2.24899 3.54803 2.31799C3.31213 2.31714 3.07872 2.36542 2.86248 2.45971C2.64625 2.55401 2.45194 2.69228 2.29205 2.86572C2.13215 3.03916 2.01009 3.24399 1.93365 3.46716C1.85721 3.69033 1.82809 3.92693 1.84808 4.16198C1.82408 5.68998 1.82408 7.21797 1.84808 8.74597C1.83509 9.00146 1.87669 9.25679 1.97015 9.49493C2.0636 9.73307 2.20678 9.94861 2.39007 10.1271C2.57336 10.3055 2.79258 10.4428 3.03313 10.5299C3.27369 10.617 3.53003 10.6518 3.78509 10.632C5.27775 10.6387 6.77002 10.6387 8.26202 10.632C8.52001 10.65 8.77887 10.6123 9.02105 10.5216C9.26323 10.4309 9.48307 10.2892 9.6657 10.1061C9.84834 9.92297 9.98953 9.70274 10.0796 9.46032C10.1698 9.21791 10.2067 8.95893 10.188 8.70099C10.194 7.94599 10.189 7.19401 10.189 6.44201Z"
        fill="#828282" />
    <path
        d="M22.8249 24.5001C21.6407 25.3672 20.1726 25.7547 18.7147 25.585C17.2568 25.4154 15.9168 24.701 14.9633 23.5851C14.0099 22.4693 13.5134 21.0343 13.5732 19.5678C13.6331 18.1013 14.2449 16.7115 15.2861 15.6771C16.3273 14.6426 17.7209 14.0398 19.1878 13.9895C20.6547 13.9392 22.0865 14.4451 23.1961 15.4058C24.3058 16.3665 25.0114 17.711 25.1716 19.1699C25.3318 20.6289 24.9348 22.0946 24.06 23.2731C24.86 24.0791 25.677 24.8841 26.478 25.6981C26.6234 25.8374 26.7385 26.0052 26.816 26.1911C26.8691 26.363 26.8664 26.5473 26.8082 26.7175C26.75 26.8878 26.6393 27.0352 26.4921 27.1386C26.3449 27.242 26.1687 27.2962 25.9889 27.2932C25.809 27.2903 25.6346 27.2304 25.4909 27.1221C25.2719 26.9382 25.0635 26.7419 24.8669 26.5341C24.1899 25.8631 23.5159 25.1891 22.8249 24.5001ZM15.1939 19.7412C15.1833 20.5654 15.4175 21.3743 15.8667 22.0655C16.3159 22.7567 16.9599 23.2992 17.7175 23.6242C18.475 23.9493 19.312 24.0423 20.1224 23.8916C20.9328 23.7409 21.6804 23.3532 22.2705 22.7775C22.8605 22.2019 23.2666 21.4642 23.4373 20.6577C23.608 19.8512 23.5357 19.0122 23.2295 18.2469C22.9232 17.4815 22.3969 16.8242 21.717 16.358C21.0371 15.8919 20.2343 15.6379 19.41 15.6281C18.863 15.6214 18.3201 15.7224 17.8122 15.9255C17.3043 16.1287 16.8413 16.4299 16.4498 16.8119C16.0583 17.1939 15.746 17.6493 15.5305 18.1521C15.315 18.6549 15.2006 19.1952 15.1939 19.7421V19.7412Z"
        fill="#828282" />
</svg>
