<svg width="24" height="30" viewBox="0 0 24 30" fill="none" xmlns="http://www.w3.org/2000/svg">
<path d="M2.705 9.91801C1.305 9.51801 0.965002 9.07902 0.973002 7.67802C0.965597 7.11381 0.989299 6.54962 1.044 5.98802C1.0591 5.62299 1.20466 5.27549 1.45423 5.00868C1.70379 4.74186 2.0408 4.57343 2.404 4.53401C2.71166 4.47398 3.02455 4.44483 3.338 4.447C4.889 4.438 6.438 4.447 8.058 4.447C8.058 4.004 8.058 3.58702 8.058 3.17002C8.073 1.62402 8.767 0.934022 10.309 0.933022C11.815 0.933022 13.32 0.933022 14.826 0.933022C15.1206 0.891456 15.4209 0.91867 15.7032 1.01255C15.9856 1.10643 16.2423 1.26441 16.4534 1.47413C16.6645 1.68384 16.8241 1.93959 16.9198 2.22132C17.0155 2.50305 17.0447 2.80311 17.005 3.098C17.005 3.52 17.005 3.94202 17.005 4.42002C17.191 4.43002 17.355 4.44202 17.52 4.44502C19.087 4.47202 20.655 4.48 22.22 4.529C23.512 4.57 23.961 5.05901 23.963 6.33601C23.963 6.96301 23.969 7.59103 23.963 8.21803C23.9942 8.57507 23.8893 8.93071 23.6694 9.21369C23.4494 9.49668 23.1307 9.68612 22.777 9.74403C22.377 9.83203 22.341 10.023 22.342 10.362C22.3513 15.334 22.3533 20.306 22.348 25.278C22.3973 25.8902 22.3014 26.5053 22.068 27.0734C21.8347 27.6414 21.4704 28.1463 21.005 28.547C20.4826 29.0073 19.815 29.2693 19.119 29.287C14.775 29.293 10.43 29.307 6.085 29.287C5.34882 29.2755 4.63857 29.0133 4.07151 28.5437C3.50444 28.0741 3.11448 27.4252 2.966 26.704C2.83842 26.0592 2.77544 25.4033 2.778 24.746C2.762 20.228 2.771 15.711 2.767 11.194C2.768 10.764 2.727 10.344 2.705 9.91801ZM4.564 9.90101C4.55002 9.96706 4.53967 10.0338 4.533 10.101C4.533 15.23 4.518 20.358 4.533 25.486C4.539 26.953 5.223 27.564 6.717 27.565C10.5437 27.565 14.3703 27.565 18.197 27.565C19.748 27.565 20.397 26.927 20.431 25.374C20.431 25.296 20.431 25.217 20.431 25.139V9.89802L4.564 9.90101ZM12.433 8.01801V8.04902C15.2243 8.04902 18.015 8.04902 20.805 8.04902C21.0394 8.05729 21.274 8.04085 21.505 8.00001C21.6868 7.98009 21.8554 7.89571 21.9804 7.76215C22.1053 7.6286 22.1782 7.45472 22.186 7.27201C22.2087 7.0824 22.1616 6.89102 22.0536 6.73353C21.9456 6.57604 21.784 6.4632 21.599 6.41602C21.3578 6.34797 21.1074 6.31826 20.857 6.32801C15.229 6.32401 9.601 6.32401 3.973 6.32801C3.249 6.32801 2.788 6.657 2.773 7.176C2.758 7.695 3.223 8.02101 3.965 8.02201C6.78967 8.01935 9.61233 8.01801 12.433 8.01801ZM9.863 4.41001H15.054C15.206 3.34801 14.938 2.81001 14.154 2.76801C13.015 2.71501 11.87 2.72801 10.73 2.76801C10.109 2.78901 9.816 3.16802 9.814 3.79002C9.81 3.98602 9.843 4.18601 9.863 4.40901V4.41001Z" fill="black"/>
<path d="M15.975 19.569C15.975 18.003 15.97 16.437 15.975 14.869C15.972 14.5725 16.0086 14.2768 16.084 13.99C16.1376 13.7976 16.2618 13.6325 16.4318 13.5276C16.6017 13.4227 16.805 13.3857 17.001 13.424C17.1922 13.4259 17.3759 13.4984 17.5168 13.6276C17.6577 13.7569 17.7457 13.9337 17.764 14.124C17.7984 14.3557 17.8155 14.5897 17.815 14.824C17.815 18.0034 17.815 21.1827 17.815 24.362C17.8223 24.6438 17.7941 24.9253 17.731 25.2C17.6899 25.395 17.5802 25.5688 17.4218 25.6897C17.2634 25.8107 17.0669 25.8707 16.868 25.859C16.6768 25.8643 16.4902 25.7998 16.343 25.6777C16.1958 25.5555 16.098 25.3839 16.068 25.195C16.003 24.9049 15.9718 24.6083 15.975 24.311C15.968 22.733 15.975 21.151 15.975 19.569Z" fill="black"/>
<path d="M8.905 19.575C8.905 21.313 8.905 23.052 8.905 24.79C8.905 25.49 8.519 25.881 7.92 25.804C7.72398 25.7788 7.54157 25.6903 7.40056 25.5518C7.25956 25.4133 7.16771 25.2325 7.139 25.037C7.09488 24.854 7.07404 24.6662 7.07699 24.478C7.07233 21.236 7.07233 17.994 7.07699 14.752C7.07902 14.4869 7.13376 14.2248 7.238 13.981C7.457 13.474 7.77199 13.301 8.17799 13.395C8.39547 13.4401 8.5891 13.5627 8.72271 13.7401C8.85632 13.9175 8.92076 14.1375 8.904 14.359C8.913 15.111 8.904 15.859 8.904 16.614L8.905 19.575Z" fill="black"/>
<path d="M13.358 19.626C13.358 21.226 13.358 22.826 13.358 24.426C13.3609 24.6143 13.3532 24.8026 13.335 24.99C13.3315 25.2202 13.2393 25.4403 13.0776 25.6042C12.9159 25.7681 12.6972 25.8633 12.467 25.87C12.3447 25.8696 12.2238 25.8449 12.1111 25.7974C11.9985 25.7498 11.8964 25.6803 11.8109 25.5929C11.7254 25.5055 11.6581 25.402 11.613 25.2884C11.5678 25.1747 11.5457 25.0533 11.548 24.931C11.528 24.211 11.548 23.489 11.548 22.768C11.548 20.086 11.552 17.404 11.56 14.722C11.557 14.5031 11.5798 14.2846 11.628 14.071C11.6607 13.8828 11.7608 13.7129 11.9098 13.5933C12.0587 13.4736 12.2461 13.4124 12.437 13.421C12.6429 13.4124 12.845 13.4785 13.006 13.6071C13.167 13.7357 13.276 13.9183 13.313 14.121C13.3487 14.3525 13.3631 14.5869 13.356 14.821C13.3587 16.425 13.3593 18.0267 13.358 19.626Z" fill="black"/>
</svg>
