<svg width="70" height="60" viewBox="0 0 70 60" fill="none" xmlns="http://www.w3.org/2000/svg">
    <path
        d="M31.725 59.7407C24.535 59.7407 17.345 59.7407 10.155 59.7407C8.03459 59.808 5.95384 59.1553 4.25181 57.8889C2.54977 56.6225 1.3268 54.817 0.782018 52.7666C0.558576 51.8908 0.446006 50.9905 0.446996 50.0867C0.422996 41.8947 0.419653 33.7024 0.436986 25.5098C0.40659 24.2399 0.634288 22.977 1.10624 21.7976C1.57818 20.6183 2.28456 19.5468 3.18265 18.6485C4.08074 17.7501 5.15182 17.0434 6.33103 16.5711C7.51024 16.0987 8.77307 15.8706 10.043 15.9006C11.143 15.9006 12.243 15.8817 13.343 15.9097C13.4189 15.9222 13.4966 15.9193 13.5714 15.9014C13.6463 15.8834 13.7168 15.8507 13.7788 15.8052C13.8409 15.7596 13.8932 15.7023 13.9327 15.6362C13.9722 15.5702 13.9982 15.4969 14.009 15.4207C14.281 14.5087 14.564 13.5977 14.882 12.7017C15.5128 10.8335 16.7195 9.21331 18.3289 8.07399C19.9382 6.93467 21.8673 6.3348 23.839 6.36061C29.537 6.34594 35.235 6.34594 40.933 6.36061C41.3615 6.33483 41.7908 6.39728 42.1943 6.54396C42.5978 6.69064 42.9669 6.91866 43.2788 7.21364C43.5908 7.50861 43.839 7.86439 44.008 8.25905C44.177 8.65371 44.2632 9.07875 44.2614 9.50807C44.2597 9.93739 44.1699 10.3619 43.9976 10.7551C43.8253 11.1484 43.5742 11.5021 43.2599 11.7944C42.9455 12.0868 42.5745 12.3115 42.1698 12.4548C41.7651 12.5982 41.3353 12.657 40.907 12.6277C35.453 12.6397 30 12.6277 24.546 12.6367C24.0342 12.6154 23.5218 12.6589 23.021 12.7666C22.5197 12.8933 22.0604 13.1493 21.6888 13.5088C21.3171 13.8683 21.0462 14.3189 20.903 14.8157C20.376 16.3897 19.859 17.9678 19.334 19.5418C19.16 20.3034 18.7143 20.9753 18.0802 21.4317C17.4462 21.888 16.6674 22.0976 15.89 22.0208C13.982 22.0288 12.075 22.0208 10.167 22.0208C9.70119 21.9689 9.22977 22.0222 8.78733 22.1768C8.34489 22.3313 7.94271 22.583 7.61051 22.9136C7.27831 23.2442 7.02449 23.6453 6.86777 24.0869C6.71105 24.5286 6.65544 24.9998 6.70499 25.4658C6.70499 33.5852 6.70499 41.7044 6.70499 49.8237C6.65382 50.2957 6.70945 50.7731 6.86777 51.2207C7.02609 51.6683 7.28304 52.0746 7.6196 52.4094C7.95617 52.7443 8.36372 52.999 8.81211 53.155C9.2605 53.3111 9.73827 53.3644 10.21 53.3108C24.5653 53.3108 38.9206 53.3108 53.276 53.3108C53.7475 53.3666 54.2255 53.3149 54.6743 53.1599C55.1231 53.0049 55.5309 52.7504 55.8675 52.4155C56.2041 52.0807 56.4607 51.6743 56.618 51.2263C56.7753 50.7784 56.8293 50.3004 56.776 49.8286C56.7813 42.762 56.7813 35.6953 56.776 28.6287C56.7354 28.2069 56.7793 27.7815 56.9051 27.377C57.031 26.9724 57.2362 26.5968 57.5088 26.2725C57.7815 25.9482 58.116 25.6815 58.4929 25.4881C58.8698 25.2946 59.2816 25.1782 59.704 25.1458C60.1386 25.1149 60.5749 25.1753 60.9847 25.3233C61.3945 25.4713 61.7688 25.7037 62.0833 26.0051C62.3979 26.3066 62.6458 26.6706 62.8111 27.0737C62.9764 27.4769 63.0554 27.9102 63.043 28.3457C63.054 32.8947 63.043 37.4457 63.043 41.9917C63.043 44.6817 63.043 47.3718 63.043 50.0618C63.0808 51.3436 62.8561 52.6195 62.3827 53.8113C61.9092 55.0031 61.1971 56.0857 60.2901 56.9922C59.383 57.8987 58.3002 58.6101 57.1081 59.0828C55.916 59.5555 54.6398 59.7793 53.358 59.7407C46.1493 59.7487 38.9383 59.7487 31.725 59.7407Z"
        fill="#545454" />
    <path
        d="M31.71 47.0283C29.241 47.0164 26.8308 46.2735 24.7835 44.8935C22.7361 43.5135 21.1433 41.5581 20.2059 39.2739C19.2686 36.9897 19.0286 34.4792 19.5164 32.0588C20.0041 29.6385 21.1978 27.4169 22.9467 25.6741C24.6957 23.9313 26.9215 22.7454 29.3436 22.2661C31.7656 21.7868 34.2754 22.0356 36.5562 22.9809C38.8371 23.9263 40.7869 25.5259 42.1597 27.5781C43.5325 29.6303 44.2668 32.0432 44.27 34.5122C44.2695 36.1594 43.944 37.7904 43.312 39.3115C42.6801 40.8327 41.7543 42.214 40.5875 43.3767C39.4207 44.5394 38.0359 45.4606 36.5126 46.0871C34.9892 46.7137 33.3572 47.0336 31.71 47.0283ZM37.992 34.5791C37.9985 33.3423 37.6381 32.1315 36.9563 31.0996C36.2745 30.0677 35.3019 29.2612 34.1617 28.7822C33.0215 28.3032 31.7647 28.1731 30.5506 28.4084C29.3364 28.6437 28.2193 29.2339 27.3405 30.1042C26.4618 30.9746 25.861 32.086 25.614 33.2978C25.3671 34.5097 25.4851 35.7676 25.9531 36.9123C26.4212 38.0571 27.2183 39.0373 28.2436 39.729C29.2689 40.4207 30.4763 40.7927 31.713 40.7981C33.3696 40.8034 34.9607 40.152 36.1376 38.9863C37.3146 37.8206 37.9814 36.2356 37.992 34.5791Z"
        fill="#545454" />
    <path
        d="M63.053 12.628C63.053 13.651 63.053 14.597 63.053 15.544C63.0752 15.9679 63.0112 16.3919 62.8648 16.7904C62.7184 17.1888 62.4927 17.5535 62.2013 17.8622C61.91 18.1709 61.5591 18.4171 61.1697 18.5863C60.7804 18.7554 60.3608 18.844 59.9363 18.8463C59.5119 18.8486 59.0913 18.7646 58.7002 18.5997C58.3091 18.4348 57.9555 18.1923 57.6608 17.8868C57.3661 17.5813 57.1364 17.2192 56.9857 16.8224C56.835 16.4255 56.7664 16.0021 56.784 15.578C56.768 14.63 56.784 13.6781 56.784 12.6261C55.733 12.6261 54.74 12.6481 53.748 12.6261C53.3369 12.6372 52.9278 12.5673 52.5438 12.4203C52.1597 12.2733 51.8084 12.0521 51.5099 11.7694C51.2113 11.4866 50.9714 11.1478 50.8038 10.7723C50.6362 10.3968 50.5442 9.9922 50.533 9.58116C50.5219 9.17012 50.5918 8.76083 50.7388 8.37681C50.8857 7.99279 51.1069 7.64142 51.3896 7.34288C51.6724 7.04434 52.0112 6.80443 52.3867 6.63682C52.7621 6.46921 53.167 6.37723 53.578 6.36607C54.621 6.33707 55.667 6.36094 56.786 6.36094C56.786 5.26094 56.759 4.24103 56.793 3.22203C56.7977 2.53188 57.0294 1.86242 57.4523 1.317C57.8752 0.771577 58.4658 0.380437 59.133 0.203962C59.7865 0.0218536 60.4823 0.0643972 61.1089 0.324567C61.7355 0.584737 62.2566 1.04755 62.589 1.63902C62.8536 2.18342 63.006 2.77547 63.037 3.37999C63.108 4.34599 63.056 5.31999 63.056 6.35899C64.075 6.35899 65.022 6.35899 65.969 6.35899C66.3983 6.33029 66.8289 6.39022 67.2342 6.53477C67.6394 6.67933 68.0107 6.9054 68.3249 7.19932C68.6392 7.49325 68.8897 7.8488 69.061 8.24351C69.2322 8.63823 69.3206 9.06373 69.3206 9.494C69.3206 9.92427 69.2322 10.35 69.061 10.7447C68.8897 11.1394 68.6392 11.4948 68.3249 11.7887C68.0107 12.0826 67.6394 12.3089 67.2342 12.4535C66.8289 12.598 66.3983 12.6577 65.969 12.629C65.02 12.638 64.073 12.628 63.053 12.628Z"
        fill="#545454" />
</svg>
