<svg width="23" height="23" viewBox="0 0 23 23" fill="none" xmlns="http://www.w3.org/2000/svg">
    <path
        d="M11.518 22.413C11.3729 22.4076 11.2306 22.3718 11.1002 22.3081C10.9699 22.2444 10.8543 22.1541 10.7609 22.043L8.47279 19.666C6.74279 17.866 5.01185 16.066 3.26185 14.285C2.13347 13.1661 1.27206 11.807 0.74183 10.309C0.371917 9.3596 0.198903 8.34486 0.233285 7.32649C0.267666 6.30812 0.508675 5.30735 0.941781 4.38502C1.34145 3.46623 1.96371 2.66146 2.75233 2.04341C3.54095 1.42536 4.47119 1.01353 5.45887 0.845044C6.25981 0.703392 7.08183 0.735522 7.86927 0.939282C8.65671 1.14304 9.39113 1.51364 10.0228 2.02601C10.5859 2.45672 11.0885 2.96125 11.517 3.52601L11.526 3.516C11.8338 3.1476 12.1609 2.79582 12.506 2.46205C13.1032 1.8682 13.8219 1.41061 14.6127 1.12074C15.4035 0.830866 16.2475 0.71556 17.087 0.782727C17.9266 0.849894 18.7416 1.09793 19.4762 1.50984C20.2108 1.92175 20.8477 2.48777 21.3429 3.16902C21.9359 3.93875 22.3631 4.82301 22.5973 5.766C22.8315 6.709 22.8679 7.69029 22.704 8.64802C22.4397 10.3953 21.7077 12.0386 20.5858 13.404C20.2085 13.8608 19.8045 14.295 19.3759 14.7041C19.1999 14.8781 19.0259 15.051 18.8549 15.228L12.2789 22.042C12.1847 22.154 12.0683 22.2452 11.9369 22.3098C11.8055 22.3743 11.6622 22.4108 11.516 22.417L11.518 22.413ZM6.47987 1.75105C6.19841 1.75158 5.91773 1.77769 5.641 1.82905C4.81022 1.97326 4.0282 2.32195 3.36585 2.84376C2.7035 3.36558 2.18146 4.04405 1.84681 4.81801C1.46669 5.621 1.25635 6.49374 1.22865 7.38173C1.20094 8.26971 1.35659 9.15389 1.68592 9.97902C2.16897 11.3354 2.95102 12.5658 3.97401 13.5791C5.72701 15.3631 7.46098 17.165 9.19398 18.968L11.4799 21.343C11.4924 21.3565 11.5058 21.3692 11.5199 21.3811L11.5619 21.338L18.1378 14.525C18.3138 14.343 18.4939 14.164 18.6749 13.985C19.0754 13.6039 19.4529 13.1995 19.8058 12.774C20.8162 11.5475 21.4766 10.0708 21.7169 8.50001C21.8644 7.67449 21.8372 6.82725 21.6371 6.01289C21.4369 5.19853 21.0682 4.43516 20.5548 3.77205C20.1124 3.15788 19.5326 2.65572 18.8615 2.30568C18.1904 1.95563 17.4466 1.76741 16.6898 1.75605C16.0403 1.74453 15.3952 1.86494 14.7936 2.11006C14.192 2.35517 13.6464 2.71985 13.1898 3.18202C12.8702 3.49253 12.5671 3.81963 12.2819 4.162C12.1409 4.324 11.9999 4.48802 11.8549 4.64802L11.443 5.10505L11.08 4.60505L11.4799 4.305L11.0599 4.57802L10.9598 4.43702C10.5339 3.81878 10.0143 3.27055 9.41981 2.81202C8.58502 2.14134 7.55057 1.76803 6.47987 1.75105Z"
        fill="#828282" />
</svg>
