<svg width="20" height="17" viewBox="0 0 20 17" fill="none" xmlns="http://www.w3.org/2000/svg">
    <path
        d="M10.0258 2.59305C10.4258 2.18705 10.799 1.76104 11.226 1.39304C12.1616 0.563216 13.3756 0.116836 14.6259 0.143039C15.3494 0.15319 16.0622 0.320054 16.715 0.632114C17.3679 0.944174 17.9453 1.39402 18.4076 1.95069C18.8699 2.50735 19.2059 3.15761 19.3927 3.85666C19.5796 4.55572 19.6128 5.28697 19.4899 6.00005C19.2574 7.35123 18.6396 8.60652 17.7109 9.61504C17.2619 10.129 16.7109 10.573 16.2109 11.047C14.2775 12.8664 12.3441 14.685 10.4108 16.503C10.3694 16.5577 10.316 16.6021 10.2546 16.6326C10.1931 16.6632 10.1254 16.6791 10.0568 16.6791C9.98821 16.6791 9.92071 16.6632 9.85929 16.6326C9.79787 16.6021 9.7442 16.5577 9.7028 16.503C7.4968 14.43 5.30297 12.3441 3.08097 10.2891C2.14751 9.45553 1.42092 8.41607 0.958903 7.25304C0.651873 6.54845 0.506895 5.78394 0.534586 5.01586C0.562277 4.24777 0.761844 3.49571 1.11881 2.81505C1.47329 2.11523 1.99217 1.5118 2.63102 1.05652C3.26987 0.601246 4.00959 0.307694 4.78678 0.201038C5.4281 0.0954675 6.08396 0.118093 6.71647 0.267597C7.34899 0.4171 7.94566 0.690517 8.47184 1.07204C9.02474 1.45755 9.51496 1.92607 9.92497 2.46105C9.96297 2.51505 10.0018 2.56305 10.0258 2.59305Z"
        fill="#79A207" />
</svg>
