<svg width="21" height="21" viewBox="0 0 21 21" fill="none" xmlns="http://www.w3.org/2000/svg">
<path d="M10.484 2.60712C13.154 2.60712 13.471 2.6171 14.525 2.6651C15.1592 2.67294 15.7873 2.78966 16.382 3.01013C16.8139 3.17645 17.2061 3.43147 17.5334 3.75873C17.8606 4.08599 18.1157 4.47825 18.282 4.91016C18.5025 5.5048 18.6188 6.13299 18.626 6.76715C18.674 7.82115 18.685 8.13713 18.685 10.8071C18.685 13.4771 18.674 13.7941 18.626 14.8481C18.6188 15.4823 18.5025 16.1105 18.282 16.7051C18.1157 17.137 17.8606 17.5292 17.5334 17.8565C17.2061 18.1838 16.8139 18.4388 16.382 18.6051C15.7873 18.8256 15.1592 18.9423 14.525 18.9501C13.471 18.9971 13.155 19.0081 10.484 19.0081C7.81301 19.0081 7.49799 18.9971 6.44299 18.9501C5.80882 18.9422 5.18072 18.8254 4.586 18.6051C4.15413 18.4387 3.76195 18.1837 3.43469 17.8564C3.10744 17.5292 2.85235 17.137 2.68597 16.7051C2.46549 16.1105 2.34882 15.4823 2.341 14.8481C2.293 13.7941 2.28302 13.4781 2.28302 10.8071C2.28302 8.13613 2.293 7.82115 2.341 6.76715C2.34882 6.13296 2.46549 5.50483 2.68597 4.91016C2.85235 4.47828 3.10744 4.08604 3.43469 3.75879C3.76195 3.43153 4.15413 3.1765 4.586 3.01013C5.18072 2.7898 5.80882 2.67307 6.44299 2.6651C7.49799 2.6171 7.81401 2.60712 10.484 2.60712ZM10.484 0.807129C7.76801 0.807129 7.42802 0.819103 6.36102 0.868103C5.5316 0.884334 4.71094 1.04128 3.93402 1.33215C3.26986 1.58948 2.66667 1.9825 2.16302 2.48615C1.65938 2.98979 1.2663 3.59298 1.00897 4.25714C0.718223 5.03413 0.561039 5.85471 0.544006 6.68414C0.496006 7.75114 0.484009 8.09213 0.484009 10.8071C0.484009 13.5221 0.496006 13.8642 0.544006 14.9312C0.561058 15.7606 0.718241 16.5812 1.00897 17.3582C1.2663 18.0223 1.65938 18.6254 2.16302 19.1291C2.66667 19.6327 3.26986 20.0258 3.93402 20.2831C4.71094 20.574 5.5316 20.7309 6.36102 20.7471C7.42802 20.7961 7.76801 20.8081 10.484 20.8081C13.2 20.8081 13.541 20.7961 14.607 20.7471C15.4367 20.7309 16.2577 20.574 17.035 20.2831C17.6991 20.026 18.3023 19.633 18.8058 19.1293C19.3094 18.6257 19.7021 18.0224 19.959 17.3582C20.2508 16.5815 20.4081 15.7607 20.424 14.9312C20.473 13.8642 20.484 13.5231 20.484 10.8071C20.484 8.09113 20.473 7.75114 20.424 6.68414C20.4081 5.8546 20.2508 5.03384 19.959 4.25714C19.7021 3.59289 19.3094 2.98958 18.8058 2.4859C18.3023 1.98222 17.6991 1.58927 17.035 1.33215C16.2577 1.04128 15.4367 0.884337 14.607 0.868103C13.541 0.819103 13.2 0.807129 10.484 0.807129Z" fill="#141613"/>
<path d="M10.484 5.67017C9.46839 5.67017 8.4756 5.97134 7.63115 6.53558C6.7867 7.09982 6.12851 7.90179 5.73985 8.84009C5.3512 9.77839 5.24954 10.8109 5.44768 11.807C5.64581 12.8031 6.13487 13.718 6.85301 14.4362C7.57116 15.1543 8.48613 15.6434 9.48222 15.8415C10.4783 16.0396 11.5108 15.938 12.4491 15.5493C13.3874 15.1607 14.1893 14.5025 14.7536 13.658C15.3178 12.8136 15.619 11.8208 15.619 10.8052C15.619 9.44329 15.078 8.13719 14.115 7.17419C13.152 6.2112 11.8459 5.67017 10.484 5.67017ZM10.484 14.1392C9.82487 14.139 9.18063 13.9434 8.63268 13.5771C8.08472 13.2108 7.65765 12.6902 7.4055 12.0812C7.15336 11.4723 7.08741 10.8021 7.21605 10.1557C7.34469 9.50926 7.66215 8.91547 8.12822 8.4494C8.59429 7.98333 9.18807 7.66593 9.83452 7.53729C10.481 7.40866 11.151 7.47454 11.76 7.72668C12.369 7.97883 12.8895 8.4059 13.2558 8.95386C13.6222 9.50181 13.8178 10.1461 13.818 10.8052C13.818 11.6894 13.4667 12.5374 12.8415 13.1627C12.2162 13.7879 11.3682 14.1392 10.484 14.1392Z" fill="#141613"/>
<path d="M17.022 5.46704C17.022 5.70438 16.9516 5.93639 16.8198 6.13373C16.6879 6.33107 16.5005 6.48492 16.2812 6.57574C16.062 6.66657 15.8207 6.69028 15.5879 6.64398C15.3551 6.59768 15.1413 6.48344 14.9734 6.31561C14.8056 6.14779 14.6914 5.93395 14.6451 5.70117C14.5988 5.46839 14.6225 5.22714 14.7133 5.00787C14.8041 4.7886 14.958 4.60116 15.1553 4.4693C15.3527 4.33744 15.5847 4.26709 15.822 4.26709C15.9796 4.26709 16.1357 4.29809 16.2812 4.3584C16.4268 4.4187 16.5591 4.5071 16.6705 4.61853C16.782 4.72996 16.8704 4.86228 16.9307 5.00787C16.991 5.15346 17.022 5.30945 17.022 5.46704Z" fill="#141613"/>
</svg>
