<svg width="77" height="31" viewBox="0 0 77 31" fill="none" xmlns="http://www.w3.org/2000/svg">
    <path
        d="M3.777 17.168C3.84 17.312 3.89898 17.443 3.95498 17.575C4.63298 19.19 5.371 20.775 6.204 22.317C6.604 23.064 7.03306 23.798 7.48806 24.517C7.53406 24.59 7.56299 24.684 7.66299 24.717C7.75599 24.678 7.78701 24.589 7.83401 24.517C8.31601 23.754 8.76005 22.968 9.18105 22.17C9.98105 20.652 10.693 19.093 11.355 17.51C11.4 17.403 11.448 17.297 11.496 17.189C11.7868 17.1619 12.0792 17.1545 12.371 17.167C12.651 17.162 12.9311 17.167 13.2111 17.167C13.4911 17.167 13.789 17.167 14.078 17.167C14.3602 17.1547 14.6428 17.1617 14.924 17.188C14.9351 17.2422 14.9435 17.297 14.949 17.352C14.954 17.424 14.949 17.496 14.949 17.569V30.183C14.949 30.3 14.949 30.416 14.949 30.546C14.8879 30.5667 14.8254 30.5831 14.762 30.595C14.69 30.599 14.618 30.599 14.546 30.595H12.298C12.234 30.595 12.1711 30.595 12.1081 30.595C11.9271 30.586 11.908 30.563 11.897 30.395C11.897 30.341 11.897 30.287 11.897 30.232C11.897 28.598 11.897 26.9647 11.897 25.332C11.897 24.754 11.9321 24.177 11.9871 23.602C12.0061 23.402 12.0271 23.202 12.0451 23.01C12.0501 22.957 12.0451 22.904 12.0451 22.821C11.9951 22.849 11.958 22.857 11.945 22.879C11.898 22.956 11.858 23.037 11.818 23.118C11.0195 24.7368 10.1305 26.3093 9.15505 27.828C9.10605 27.904 9.05505 27.979 9.00405 28.053C8.98401 28.0781 8.96223 28.1019 8.93899 28.124C8.66199 28.155 8.37406 28.134 8.08706 28.138C7.80006 28.142 7.52697 28.138 7.24697 28.138H6.37808C6.31508 28.047 6.25603 27.967 6.20303 27.885C5.19135 26.3247 4.26983 24.7077 3.44302 23.042C3.41273 22.9512 3.36362 22.8677 3.29897 22.797C3.22597 22.821 3.24007 22.873 3.24307 22.913C3.26707 23.201 3.29402 23.488 3.31802 23.775C3.33202 23.937 3.34998 24.099 3.35098 24.261C3.36164 25.697 3.37031 27.1327 3.37698 28.568C3.37698 29.137 3.37698 29.705 3.37698 30.274C3.37698 30.586 3.36206 30.6 3.06106 30.601C2.25706 30.601 1.45338 30.601 0.650049 30.601C0.562049 30.601 0.472977 30.589 0.376977 30.583C0.359715 30.528 0.346431 30.4719 0.33706 30.415C0.33006 30.334 0.33706 30.252 0.33706 30.171C0.33706 25.971 0.33706 21.771 0.33706 17.571C0.32094 17.4437 0.332798 17.3143 0.371972 17.192C0.473373 17.1554 0.582125 17.1437 0.688989 17.158C1.60966 17.158 2.53072 17.158 3.45205 17.158C3.55505 17.158 3.662 17.165 3.777 17.168Z"
        fill="white" />
    <path
        d="M76.504 30.5632C76.4244 30.5796 76.344 30.591 76.263 30.5972C75.324 30.5972 74.385 30.5972 73.446 30.5972C73.3742 30.5989 73.3032 30.5812 73.2405 30.546C73.1779 30.5108 73.1258 30.4594 73.0899 30.3972C72.0979 29.0202 71.1009 27.6472 70.1899 26.2172C69.5419 25.2052 68.914 24.1832 68.333 23.1322C68.293 23.0592 68.273 22.9622 68.156 22.9242C68.1433 22.9563 68.1345 22.9899 68.13 23.0242C68.148 23.6372 68.182 24.2512 68.185 24.8642C68.193 26.6522 68.185 28.4402 68.185 30.2272C68.186 30.2993 68.183 30.3714 68.176 30.4432C68.1763 30.4615 68.1728 30.4796 68.1658 30.4965C68.1589 30.5134 68.1484 30.5287 68.1353 30.5414C68.1222 30.5542 68.1066 30.5641 68.0895 30.5706C68.0725 30.5771 68.0542 30.58 68.036 30.5792C67.964 30.5862 67.8919 30.5862 67.8189 30.5862H65.4899C65.3899 30.5862 65.2899 30.5772 65.1899 30.5712C65.1701 30.5172 65.1552 30.4617 65.145 30.4052C65.138 30.3242 65.145 30.2432 65.145 30.1612C65.145 25.9612 65.145 21.7612 65.145 17.5612C65.13 17.4361 65.1398 17.3094 65.1739 17.1882C65.2618 17.1392 65.3642 17.1229 65.463 17.1422C66.24 17.1422 67.0159 17.1422 67.7929 17.1422H68.3699C68.4179 17.2312 68.4629 17.3072 68.5019 17.3872C69.8876 20.1863 71.4578 22.8902 73.202 25.4812C73.258 25.5632 73.3129 25.6462 73.3719 25.7252C73.4024 25.754 73.436 25.7795 73.472 25.8012C73.4858 25.7636 73.4958 25.7247 73.5019 25.6852C73.5019 25.5582 73.492 25.4322 73.487 25.3062C73.474 24.9992 73.451 24.6932 73.451 24.3862C73.451 22.0842 73.451 19.7818 73.451 17.4792C73.451 17.3792 73.457 17.2842 73.461 17.1742C73.5269 17.1593 73.5936 17.1493 73.661 17.1442C74.537 17.1442 75.413 17.1442 76.289 17.1442C76.356 17.1476 76.4228 17.155 76.489 17.1662C76.5004 17.2194 76.5091 17.2731 76.515 17.3272C76.515 17.3992 76.515 17.4722 76.515 17.5442V30.5442L76.504 30.5632Z"
        fill="white" />
    <path
        d="M39.197 17.183C39.297 17.173 39.3699 17.159 39.4399 17.159C41.1399 17.159 42.834 17.138 44.531 17.175C45.7852 17.1883 47.008 17.5683 48.049 18.268C49.3386 19.1197 50.2377 20.4482 50.549 21.962C50.7029 22.7046 50.7631 23.4635 50.728 24.221C50.7165 24.953 50.5952 25.6791 50.368 26.375C50.0772 27.2919 49.567 28.1239 48.8818 28.799C48.1966 29.4741 47.3571 29.9718 46.436 30.249C45.6961 30.4875 44.9224 30.6046 44.145 30.596C42.592 30.596 41.0451 30.596 39.4871 30.596H39.46C39.202 30.59 39.1901 30.578 39.1851 30.314C39.1851 30.251 39.1851 30.188 39.1851 30.125V17.616C39.1851 17.481 39.192 17.347 39.197 17.183ZM42.556 20.032C42.5224 20.1345 42.5124 20.2432 42.527 20.35C42.527 22.7053 42.527 25.0603 42.527 27.415C42.527 27.469 42.527 27.524 42.527 27.577C42.527 27.63 42.544 27.677 42.551 27.721C42.6413 27.7745 42.7474 27.7946 42.851 27.778C43.194 27.778 43.537 27.778 43.88 27.778C44.2229 27.7798 44.565 27.7463 44.901 27.678C45.3574 27.5995 45.7852 27.4024 46.1415 27.1065C46.4978 26.8106 46.77 26.4263 46.931 25.992C46.957 25.925 46.9801 25.856 47.0031 25.792C47.1679 25.2852 47.2571 24.7569 47.2679 24.224C47.29 23.7825 47.275 23.34 47.223 22.901C47.1764 22.4975 47.0783 22.1016 46.931 21.723C46.7068 21.1345 46.2721 20.6502 45.7111 20.364C45.3166 20.1614 44.8838 20.0445 44.441 20.021C43.9 19.993 43.359 19.996 42.817 19.988C42.7275 19.9733 42.6357 19.9888 42.556 20.032Z"
        fill="white" />
    <path
        d="M24.9041 28.127C24.7751 28.119 24.678 28.108 24.58 28.108C23.3133 28.108 22.049 28.108 20.787 28.108C20.6726 28.0942 20.5567 28.1137 20.453 28.164C20.427 28.256 20.396 28.358 20.37 28.464C20.2207 29.068 20.072 29.6723 19.924 30.277C19.909 30.338 19.89 30.398 19.875 30.46C19.868 30.5004 19.8462 30.5368 19.8139 30.5621C19.7815 30.5874 19.7409 30.5998 19.7 30.597C19.637 30.597 19.574 30.597 19.511 30.597H16.777C16.6708 30.6157 16.5613 30.5996 16.465 30.551C16.4372 30.4631 16.4444 30.3678 16.485 30.285C16.744 29.346 16.991 28.404 17.262 27.469C17.81 25.58 18.399 23.704 19.046 21.847C19.563 20.364 20.1241 18.899 20.7801 17.471C20.8251 17.371 20.874 17.278 20.923 17.179C21.2135 17.1527 21.5055 17.1457 21.797 17.158C22.097 17.153 22.3971 17.158 22.6911 17.158H23.558H24.432C24.489 17.274 24.545 17.376 24.593 17.482C25.093 18.574 25.5401 19.682 25.9521 20.814C27.0854 23.908 28.0653 27.0493 28.892 30.238C28.9309 30.3439 28.9486 30.4563 28.944 30.569C28.8739 30.5812 28.8032 30.5892 28.7321 30.593C27.7474 30.593 26.7631 30.593 25.7791 30.593C25.5351 30.593 25.525 30.585 25.466 30.351C25.31 29.73 25.1581 29.108 25.0031 28.487C24.9771 28.378 24.9411 28.266 24.9041 28.127ZM24.1131 25.227C24.1191 25.208 24.1311 25.19 24.1291 25.175C24.1225 25.1214 24.1125 25.0683 24.099 25.016C23.799 23.916 23.482 22.81 23.099 21.729C23.004 21.457 22.8921 21.19 22.7851 20.922C22.7631 20.867 22.7511 20.798 22.6551 20.79C22.6253 20.8308 22.5989 20.874 22.5761 20.919C22.5241 21.034 22.4761 21.151 22.4301 21.268C22.0711 22.204 21.7871 23.168 21.5091 24.126C21.4211 24.426 21.338 24.734 21.255 25.038C21.236 25.106 21.207 25.177 21.265 25.244C21.3567 25.2818 21.4569 25.2942 21.5551 25.28C22.1061 25.28 22.6551 25.28 23.2071 25.28C23.4331 25.28 23.659 25.28 23.885 25.28C23.965 25.284 24.0511 25.3 24.1131 25.232V25.227Z"
        fill="white" />
    <path
        d="M55.1861 28.1311C55.1511 28.2491 55.1241 28.3311 55.1021 28.4211C54.9421 29.0601 54.7841 29.6981 54.6231 30.3371C54.6041 30.4141 54.5771 30.4891 54.5501 30.5781C54.4501 30.5861 54.361 30.5981 54.273 30.5981H51.401C51.3201 30.6114 51.2371 30.5973 51.1651 30.5581C51.158 30.4587 51.1726 30.3591 51.208 30.2661C51.596 28.7731 52.023 27.2921 52.474 25.8171C53.056 23.9171 53.6681 22.0331 54.3741 20.1781C54.7071 19.3011 55.0611 18.4321 55.4511 17.5781C55.5111 17.4471 55.575 17.3191 55.64 17.1781C55.7029 17.1666 55.7663 17.1585 55.83 17.1541H58.9721C59.0261 17.1541 59.0801 17.1611 59.1341 17.1661C59.2163 17.2634 59.2793 17.3753 59.32 17.4961C59.74 18.4161 60.1201 19.3511 60.4781 20.2961C61.3441 22.5841 62.0951 24.9091 62.7841 27.2551C63.0841 28.2671 63.3491 29.2871 63.6291 30.3041C63.6501 30.3811 63.662 30.4611 63.683 30.5571C63.6196 30.5735 63.5551 30.5852 63.49 30.5921C63.247 30.5921 63.0031 30.5921 62.7591 30.5921H60.5921C60.4816 30.6037 60.37 30.5925 60.2641 30.5591C60.2164 30.4733 60.1826 30.3804 60.1641 30.2841C60.0041 29.6361 59.8427 28.9884 59.6801 28.3411C59.6631 28.2731 59.6361 28.2071 59.6081 28.1251C59.5141 28.1161 59.426 28.1021 59.338 28.1021C58.0467 28.1021 56.7557 28.1021 55.465 28.1021C55.377 28.1081 55.2911 28.1221 55.1861 28.1311ZM58.871 25.2601C58.844 25.1321 58.8311 25.0451 58.8061 24.9601C58.6201 24.3111 58.435 23.6601 58.241 23.0151C58.041 22.3501 57.825 21.6921 57.562 21.0501C57.5374 20.9493 57.4838 20.8579 57.408 20.7871C57.383 20.8091 57.348 20.8261 57.334 20.8531C57.2913 20.9324 57.2543 21.0146 57.2231 21.0991C57.0531 21.5741 56.8711 22.0451 56.7231 22.5261C56.4721 23.3351 56.2411 24.1491 56.0031 24.9611C55.9582 25.0548 55.9507 25.162 55.9821 25.2611C56.0507 25.272 56.1197 25.2793 56.189 25.2831H58.596C58.677 25.2851 58.752 25.2711 58.871 25.2601Z"
        fill="white" />
    <path
        d="M33.5241 30.5791C33.4011 30.5871 33.3121 30.5971 33.2241 30.5981C32.2268 30.6392 31.2281 30.6275 30.2321 30.5631C30.2156 30.5071 30.2031 30.4499 30.195 30.3921C30.188 30.3121 30.195 30.2301 30.195 30.1491V25.7891C30.195 25.7161 30.195 25.6441 30.195 25.5721C30.2009 25.436 30.1604 25.302 30.08 25.1921C29.8233 24.8001 29.5694 24.4054 29.318 24.0081C28.4272 22.6173 27.6114 21.1799 26.8741 19.7021C26.5114 18.9757 26.1905 18.2291 25.913 17.4661C25.889 17.3981 25.867 17.3301 25.846 17.2661C25.8427 17.2456 25.8427 17.2246 25.846 17.2041C25.908 17.1441 25.993 17.1641 26.07 17.1641C26.621 17.1641 27.1701 17.1641 27.7221 17.1641H29.1591C29.238 17.2258 29.2919 17.3138 29.3111 17.4121C29.7641 18.65 30.3069 19.8532 30.9351 21.0121C31.1801 21.4641 31.4411 21.9071 31.6971 22.3531C31.729 22.433 31.7827 22.5023 31.8521 22.5531C31.9521 22.5331 31.9731 22.4531 32.0091 22.3981C32.3898 21.7741 32.7461 21.1361 33.0781 20.4841C33.588 19.4884 34.0374 18.4629 34.424 17.4131C34.445 17.3541 34.4691 17.2951 34.4941 17.2381C34.509 17.2158 34.5264 17.1953 34.5461 17.1771C34.8961 17.1521 35.2641 17.1701 35.6331 17.1661C36.0021 17.1621 36.3911 17.1661 36.7701 17.1661C37.1491 17.1661 37.507 17.1611 37.87 17.1661C37.8936 17.2601 37.8792 17.3596 37.83 17.4431C37.63 18.0221 37.3881 18.5871 37.1301 19.1431C36.4407 20.6139 35.6592 22.0398 34.7901 23.4121C34.4281 23.9941 34.0541 24.5701 33.6771 25.1431C33.5752 25.2898 33.5214 25.4645 33.523 25.6431C33.53 27.1681 33.523 28.6941 33.523 30.2201C33.532 30.3281 33.5271 30.4351 33.5241 30.5791Z"
        fill="white" />
    <path
        d="M61.5771 4.55513C61.6213 5.1422 61.5678 5.73253 61.419 6.30213C61.1607 7.25472 60.5412 8.06905 59.692 8.57213C59.5397 8.66911 59.3818 8.75693 59.219 8.83513C58.9088 8.98215 58.6228 9.17572 58.371 9.40913C58.271 9.50013 58.1711 9.59213 58.0711 9.67913C58.0163 9.72593 57.957 9.76714 57.8941 9.80213C57.8764 9.81174 57.8568 9.81748 57.8367 9.81897C57.8166 9.82045 57.7965 9.81765 57.7776 9.81074C57.7587 9.80384 57.7415 9.79299 57.7271 9.77892C57.7127 9.76485 57.7013 9.74788 57.694 9.72913C57.6678 9.67192 57.6483 9.61185 57.636 9.55013C57.6147 9.44407 57.5993 9.33691 57.59 9.22913C57.4613 8.1477 57.694 7.05407 58.2516 6.1186C58.8092 5.18313 59.6605 4.45834 60.673 4.05713C60.831 3.99113 60.9941 3.93813 61.1551 3.88013C61.1968 3.86323 61.24 3.85017 61.2841 3.84113C61.4961 3.80313 61.573 3.85913 61.584 4.07113C61.577 4.26013 61.5771 4.45013 61.5771 4.55513Z"
        fill="white" />
    <path
        d="M61.5771 9.78498C61.5898 10.2651 61.5379 10.7447 61.423 11.211C61.3048 11.6815 61.0915 12.1228 60.796 12.5075C60.5005 12.8923 60.1291 13.2124 59.705 13.448C59.1673 13.7624 58.6551 14.1185 58.173 14.513C58.082 14.5864 57.9843 14.6511 57.881 14.706C57.864 14.7187 57.8441 14.7269 57.8231 14.7299C57.802 14.7329 57.7805 14.7305 57.7606 14.723C57.7407 14.7156 57.7229 14.7032 57.709 14.6872C57.6951 14.6711 57.6856 14.6518 57.6811 14.631C57.6542 14.5546 57.636 14.4754 57.627 14.395C57.5735 13.9098 57.5735 13.4202 57.627 12.935C57.6828 12.3306 57.8578 11.7432 58.1417 11.2067C58.4255 10.6702 58.8128 10.1951 59.2811 9.80898C59.8455 9.35539 60.4866 9.00655 61.174 8.77898C61.2421 8.75527 61.3126 8.73852 61.3841 8.72898C61.4203 8.72433 61.4569 8.73333 61.4869 8.75422C61.5168 8.7751 61.5379 8.80639 61.5461 8.84198C61.5607 8.92184 61.5683 9.0028 61.569 9.08398C61.577 9.29998 61.5771 9.51698 61.5771 9.78498Z"
        fill="white" />
    <path
        d="M56.6641 14.8332C56.634 14.8175 56.6052 14.7994 56.578 14.7792C56.1472 14.4081 55.6889 14.0701 55.2071 13.7682C54.9271 13.5852 54.6501 13.3992 54.3731 13.2122C53.9945 12.9552 53.6737 12.6221 53.4311 12.2342C53.1885 11.8463 53.0294 11.412 52.964 10.9592C52.8646 10.2894 52.8284 9.61172 52.856 8.93516C52.8564 8.89928 52.8597 8.86349 52.866 8.82816C52.874 8.79736 52.8918 8.76998 52.9167 8.75015C52.9415 8.73031 52.9723 8.71909 53.0041 8.71816C53.0492 8.71709 53.0943 8.72213 53.1381 8.73316C54.2919 9.01215 55.2996 9.71274 55.963 10.6972C56.3104 11.2275 56.5358 11.8282 56.6231 12.4562C56.6509 12.6252 56.6679 12.7959 56.674 12.9672C56.6931 13.3277 56.739 13.6864 56.8111 14.0402C56.8539 14.2816 56.8232 14.5303 56.7231 14.7542C56.7056 14.7821 56.6859 14.8085 56.6641 14.8332Z"
        fill="white" />
    <path
        d="M56.5771 9.84615C56.5477 9.83145 56.5196 9.81439 56.4931 9.79515C56.105 9.44361 55.6826 9.13203 55.2321 8.86514C55.0321 8.74114 54.832 8.61414 54.632 8.49314C54.1074 8.16802 53.6791 7.70892 53.391 7.16315C53.0697 6.58649 52.8625 5.95325 52.781 5.29815C52.7312 4.93266 52.7377 4.56169 52.8001 4.19815C52.8239 4.08432 52.8597 3.97336 52.907 3.86715C52.9135 3.8525 52.9228 3.8393 52.9345 3.82832C52.9461 3.81734 52.9599 3.8088 52.9749 3.80321C52.9899 3.79762 53.0059 3.79509 53.0219 3.79576C53.0379 3.79644 53.0535 3.80031 53.068 3.80714C53.1025 3.8182 53.136 3.83225 53.168 3.84915C53.7 4.13415 54.237 4.41214 54.762 4.70914C55.1081 4.90492 55.428 5.14383 55.714 5.42015C56.1965 5.88955 56.5126 6.50368 56.614 7.16915C56.6654 7.48086 56.6915 7.79622 56.692 8.11214C56.7034 8.6714 56.6757 9.23076 56.609 9.78614C56.612 9.80014 56.5981 9.81115 56.5771 9.84615Z"
        fill="white" />
    <path
        d="M57.198 0.456055C57.2207 0.471197 57.2413 0.489366 57.2591 0.510056C57.5664 1.02014 57.8389 1.55034 58.075 2.09706C58.2762 2.56352 58.355 3.07362 58.304 3.57906C58.2778 3.79399 58.2265 4.00511 58.1511 4.20806C57.9648 4.68838 57.7153 5.14172 57.4091 5.55606C57.2741 5.75006 57.172 5.75606 57.028 5.56606C56.5452 4.9872 56.2311 4.2866 56.12 3.54106C56.0579 3.00806 56.1521 2.46851 56.391 1.98806C56.63 1.48806 56.891 1.00606 57.141 0.517056C57.1573 0.494306 57.1765 0.473795 57.198 0.456055Z"
        fill="white" />
</svg>
