<svg width="30" height="26" viewBox="0 0 30 26" fill="none" xmlns="http://www.w3.org/2000/svg">
<path d="M11.667 7.442H8.83298C8.63093 6.60369 8.6145 5.73133 8.78482 4.886C8.95515 4.04067 9.30811 3.24277 9.81903 2.54811C10.33 1.85345 10.9865 1.27883 11.7427 0.864427C12.4989 0.45002 13.3366 0.205854 14.197 0.149003C17.254 0.0790031 20.315 0.113977 23.374 0.127977C24.1553 0.110125 24.9322 0.24857 25.6593 0.535173C26.3863 0.821775 27.0488 1.25077 27.6077 1.79695C28.1666 2.34313 28.6108 2.99549 28.9141 3.71571C29.2174 4.43594 29.3738 5.2095 29.374 5.99098C29.427 10.373 29.434 14.756 29.374 19.137C29.3729 19.9186 29.2157 20.6921 28.9117 21.4122C28.6077 22.1323 28.1631 22.7844 27.6038 23.3304C27.0445 23.8763 26.3818 24.3052 25.6546 24.5917C24.9275 24.8782 24.1504 25.0167 23.369 24.999C20.4483 25.011 17.527 25.011 14.605 24.999C13.8249 25.0047 13.0515 24.8545 12.3302 24.5572C11.609 24.26 10.9543 23.8216 10.4048 23.268C9.85518 22.7143 9.42174 22.0564 9.12986 21.333C8.83797 20.6095 8.69352 19.835 8.70499 19.055C8.70499 18.532 8.70499 18.01 8.70499 17.418H11.675C11.675 17.99 11.654 18.561 11.675 19.13C11.6731 19.5174 11.7497 19.9011 11.9001 20.2581C12.0506 20.6151 12.2719 20.9378 12.5506 21.2069C12.8293 21.476 13.1596 21.6858 13.5217 21.8236C13.8837 21.9615 14.2699 22.0245 14.657 22.009C17.5777 22.023 20.499 22.023 23.421 22.009C23.8156 22.0178 24.2079 21.9463 24.5741 21.799C24.9403 21.6516 25.2728 21.4315 25.5514 21.1518C25.8299 20.8721 26.0488 20.5388 26.1946 20.172C26.3405 19.8052 26.4104 19.4126 26.4 19.018C26.418 14.718 26.418 10.418 26.4 6.118C26.4131 5.71699 26.3431 5.3176 26.1944 4.94496C26.0456 4.57232 25.8214 4.23449 25.5358 3.95271C25.2502 3.67094 24.9093 3.45132 24.5347 3.30766C24.1601 3.16401 23.7598 3.09943 23.359 3.118C20.4923 3.09866 17.6256 3.09866 14.759 3.118C14.3439 3.08521 13.9266 3.14295 13.536 3.28725C13.1453 3.43154 12.7907 3.65894 12.4966 3.95372C12.2025 4.2485 11.9759 4.60364 11.8325 4.99458C11.6891 5.38552 11.6323 5.80296 11.666 6.218C11.661 6.596 11.667 6.976 11.667 7.442Z" fill="black"/>
<path d="M7.41098 14.694V18.427L0.461975 12.463L7.38498 6.633V9.918H16.275V14.698L7.41098 14.694Z" fill="black"/>
</svg>
