<svg width="137" height="55" viewBox="0 0 137 55" fill="none" xmlns="http://www.w3.org/2000/svg">
<path d="M6.811 30.371C6.923 30.627 7.02895 30.859 7.12795 31.095C8.33495 33.97 9.64896 36.795 11.133 39.538C11.852 40.867 12.608 42.174 13.418 43.449C13.5 43.58 13.551 43.749 13.73 43.799C13.895 43.73 13.951 43.571 14.03 43.439C14.889 42.08 15.679 40.682 16.43 39.26C17.855 36.56 19.122 33.783 20.299 30.966C20.379 30.775 20.465 30.587 20.5499 30.393C21.0681 30.3449 21.589 30.3318 22.109 30.354C22.609 30.346 23.109 30.354 23.604 30.354C24.118 30.354 24.632 30.348 25.147 30.354C25.6493 30.333 26.1524 30.3457 26.653 30.392C26.671 30.5 26.693 30.592 26.699 30.683C26.706 30.812 26.699 30.94 26.699 31.069V53.541C26.699 53.748 26.694 53.956 26.691 54.187C26.5826 54.2241 26.4716 54.2532 26.359 54.274C26.2309 54.2839 26.1023 54.2862 25.974 54.281H21.974C21.862 54.281 21.749 54.281 21.637 54.281C21.315 54.265 21.273 54.224 21.262 53.917C21.262 53.817 21.262 53.725 21.262 53.628C21.262 50.7194 21.262 47.81 21.262 44.9C21.262 43.871 21.324 42.845 21.422 41.82C21.455 41.469 21.494 41.12 21.522 40.766C21.53 40.673 21.522 40.578 21.522 40.43C21.433 40.48 21.368 40.494 21.344 40.53C21.261 40.667 21.189 40.811 21.118 40.955C19.6974 43.838 18.1145 46.6382 16.377 49.342C16.2896 49.4754 16.2 49.6087 16.108 49.742C16.0726 49.786 16.0345 49.8278 15.994 49.867C15.5 49.922 14.987 49.886 14.475 49.892C13.963 49.898 13.475 49.892 12.98 49.892H11.433C11.321 49.73 11.217 49.592 11.121 49.442C9.31968 46.6644 7.67929 43.7857 6.20797 40.82C6.15427 40.6581 6.06664 40.5094 5.95095 40.384C5.82195 40.427 5.85097 40.519 5.85097 40.59C5.89297 41.103 5.94201 41.614 5.98501 42.126C6.01001 42.414 6.04197 42.703 6.04397 42.991C6.0633 45.547 6.07828 48.1027 6.08895 50.658C6.08895 51.671 6.08895 52.683 6.08895 53.696C6.08895 54.25 6.06296 54.276 5.52596 54.277C4.09596 54.281 2.66567 54.281 1.23501 54.277C1.07701 54.277 0.919984 54.257 0.748984 54.245C0.717975 54.1469 0.69426 54.0467 0.678001 53.945C0.666001 53.801 0.670982 53.656 0.670982 53.511C0.670982 46.0357 0.670982 38.561 0.670982 31.087C0.642649 30.8599 0.663811 30.6293 0.732993 30.411C0.91358 30.3466 1.10678 30.3257 1.29696 30.35C2.93696 30.35 4.57663 30.35 6.21596 30.35C6.41596 30.353 6.606 30.364 6.811 30.371Z" fill="#565656"/>
<path d="M136.287 54.218C136.145 54.2465 136.001 54.2663 135.857 54.277C134.186 54.277 132.514 54.277 130.842 54.284C130.715 54.2877 130.589 54.2574 130.478 54.1962C130.366 54.135 130.273 54.0452 130.208 53.936C128.442 51.485 126.667 49.036 125.038 46.494C123.886 44.694 122.767 42.874 121.738 41.002C121.666 40.872 121.631 40.702 121.423 40.631C121.399 40.6907 121.384 40.7532 121.376 40.817C121.408 41.909 121.469 43.001 121.476 44.093C121.491 47.275 121.483 50.458 121.484 53.641C121.486 53.7695 121.48 53.898 121.468 54.026C121.468 54.0585 121.462 54.0906 121.449 54.1206C121.437 54.1505 121.418 54.1775 121.395 54.2C121.371 54.2225 121.344 54.2399 121.313 54.2513C121.283 54.2626 121.25 54.2676 121.218 54.266C121.09 54.2772 120.961 54.2818 120.833 54.28C119.45 54.28 118.068 54.28 116.686 54.28C116.511 54.28 116.337 54.264 116.151 54.255C116.116 54.1573 116.09 54.057 116.071 53.955C116.058 53.812 116.064 53.666 116.064 53.522C116.064 46.0473 116.064 38.573 116.064 31.099C116.038 30.8761 116.055 30.6501 116.116 30.434C116.273 30.3476 116.456 30.3186 116.632 30.352C118.014 30.352 119.396 30.352 120.779 30.352H121.806C121.892 30.51 121.972 30.647 122.042 30.789C124.509 35.7728 127.307 40.5865 130.415 45.198C130.515 45.344 130.615 45.491 130.715 45.633C130.768 45.684 130.826 45.7289 130.889 45.767C130.915 45.7006 130.932 45.6315 130.942 45.561C130.942 45.336 130.925 45.111 130.916 44.886C130.893 44.341 130.852 43.795 130.852 43.25C130.846 39.1513 130.846 35.0513 130.852 30.95C130.852 30.777 130.862 30.603 130.868 30.407C130.983 30.3805 131.1 30.3625 131.218 30.353C132.777 30.349 134.337 30.349 135.896 30.353C136.013 30.3595 136.13 30.3721 136.246 30.391C136.266 30.4859 136.281 30.5816 136.291 30.678C136.299 30.807 136.291 30.936 136.291 31.064V54.218H136.287Z" fill="#565656"/>
<path d="M69.868 30.3971C70.052 30.3781 70.177 30.3541 70.302 30.3541C73.323 30.3541 76.345 30.3171 79.365 30.3821C81.5981 30.4058 83.7755 31.0822 85.629 32.3281C87.9244 33.8445 89.5248 36.2094 90.079 38.9041C90.3534 40.2264 90.4606 41.578 90.398 42.9271C90.3775 44.2299 90.1614 45.5224 89.757 46.7611C89.2394 48.3937 88.3313 49.8755 87.1115 51.0779C85.8917 52.2803 84.397 53.167 82.757 53.6611C81.4393 54.0845 80.062 54.2928 78.678 54.278C75.914 54.284 73.15 54.284 70.386 54.278H70.338C69.878 54.2661 69.857 54.245 69.848 53.778C69.848 53.666 69.848 53.5531 69.848 53.4411C69.848 46.0157 69.848 38.5911 69.848 31.1671C69.848 30.9281 69.86 30.6891 69.868 30.3971ZM75.85 35.4691C75.7903 35.6511 75.7725 35.8442 75.798 36.0341C75.798 40.2267 75.798 44.4197 75.798 48.6131C75.798 48.7131 75.793 48.8061 75.798 48.9021C75.803 48.9981 75.828 49.0861 75.841 49.1581C76.0017 49.254 76.1915 49.2895 76.376 49.2581C76.987 49.2581 77.597 49.2581 78.208 49.2581C78.8184 49.2588 79.4274 49.1965 80.025 49.0721C80.8376 48.9329 81.5993 48.5824 82.2336 48.0559C82.868 47.5293 83.3526 46.8451 83.639 46.0721C83.686 45.9531 83.727 45.831 83.768 45.709C84.0618 44.807 84.2209 43.8665 84.24 42.918C84.279 42.1318 84.2519 41.3437 84.159 40.5621C84.0767 39.8427 83.9023 39.1369 83.64 38.4621C83.2406 37.4146 82.4666 36.5526 81.468 36.043C80.7657 35.6816 79.9947 35.4733 79.206 35.4321C78.244 35.3821 77.28 35.3881 76.316 35.3741C76.1544 35.3524 75.9902 35.3859 75.85 35.4691Z" fill="#565656"/>
<path d="M44.424 49.88C44.195 49.866 44.024 49.846 43.847 49.846C41.5957 49.846 39.345 49.846 37.095 49.846C36.8895 49.8205 36.681 49.8552 36.4949 49.946C36.4489 50.11 36.395 50.293 36.347 50.478C36.0803 51.5534 35.8157 52.6287 35.553 53.704C35.526 53.813 35.492 53.921 35.466 54.03C35.4539 54.1023 35.4154 54.1674 35.3579 54.2127C35.3003 54.2581 35.228 54.2803 35.155 54.275C35.042 54.275 34.93 54.282 34.817 54.282C33.1943 54.282 31.5707 54.282 29.946 54.282C29.7571 54.3159 29.5623 54.2875 29.3909 54.201C29.3411 54.0446 29.3544 53.8748 29.428 53.728C29.887 52.056 30.328 50.378 30.811 48.713C31.786 45.351 32.834 42.013 33.986 38.705C34.907 36.065 35.9049 33.456 37.0729 30.914C37.1529 30.741 37.241 30.571 37.327 30.395C37.8446 30.3482 38.3647 30.3355 38.884 30.357C39.414 30.349 39.945 30.357 40.476 30.357C40.99 30.357 41.504 30.357 42.019 30.357L43.574 30.365C43.674 30.57 43.774 30.753 43.861 30.941C44.748 32.885 45.547 34.866 46.281 36.873C48.2943 42.3817 50.039 47.9747 51.515 53.652C51.584 53.8405 51.6156 54.0405 51.608 54.241C51.4829 54.2621 51.3567 54.2761 51.23 54.283C49.4767 54.283 47.7243 54.283 45.973 54.283C45.539 54.283 45.5219 54.267 45.4169 53.851C45.1379 52.745 44.867 51.6381 44.591 50.532C44.546 50.327 44.49 50.128 44.424 49.88ZM43.015 44.727C43.027 44.693 43.048 44.661 43.044 44.633C43.0327 44.538 43.015 44.4437 42.991 44.351C42.457 42.383 41.891 40.424 41.215 38.499C41.044 38.015 40.845 37.54 40.655 37.063C40.616 36.963 40.594 36.842 40.423 36.828C40.3705 36.9005 40.3234 36.9767 40.282 37.056C40.19 37.2614 40.104 37.469 40.024 37.679C39.384 39.345 38.8789 41.054 38.3829 42.766C38.2259 43.306 38.0829 43.848 37.9299 44.39C37.8969 44.511 37.846 44.637 37.949 44.757C38.1123 44.8235 38.2903 44.8456 38.465 44.821C39.445 44.821 40.4257 44.821 41.407 44.821C41.807 44.821 42.2069 44.821 42.6069 44.821C42.7529 44.818 42.904 44.846 43.015 44.727Z" fill="#565656"/>
<path d="M98.334 49.8871C98.273 50.0981 98.2239 50.25 98.1849 50.405C97.9003 51.5384 97.6163 52.675 97.333 53.815C97.298 53.952 97.251 54.086 97.202 54.244C97.023 54.257 96.866 54.2791 96.708 54.2791C95.004 54.2791 93.3003 54.2791 91.597 54.2791C91.4522 54.3023 91.3038 54.277 91.1749 54.207C91.163 54.0301 91.1896 53.8527 91.2529 53.6871C91.9439 51.0301 92.703 48.392 93.507 45.767C94.542 42.39 95.632 39.0311 96.887 35.7281C97.48 34.1661 98.1099 32.6191 98.8049 31.1001C98.9109 30.8671 99.025 30.6371 99.14 30.4001C99.2523 30.3786 99.3659 30.3642 99.48 30.3571C101.347 30.3571 103.211 30.3571 105.074 30.3571C105.169 30.3571 105.264 30.3701 105.36 30.3781C105.507 30.5513 105.62 30.7512 105.692 30.9671C106.44 32.6031 107.118 34.2671 107.755 35.9521C109.295 40.0241 110.633 44.163 111.855 48.3391C112.384 50.139 112.86 51.9581 113.355 53.7691C113.393 53.9061 113.415 54.047 113.455 54.218C113.342 54.2473 113.228 54.268 113.112 54.28C112.679 54.287 112.245 54.28 111.812 54.28C110.526 54.28 109.24 54.28 107.954 54.28C107.758 54.3005 107.559 54.2801 107.371 54.22C107.288 54.0675 107.23 53.9023 107.201 53.731C106.915 52.5784 106.628 51.4257 106.34 50.2731C106.309 50.1511 106.261 50.0341 106.211 49.8871C106.044 49.8721 105.887 49.847 105.731 49.847C103.432 49.847 101.132 49.847 98.8309 49.847C98.6809 49.847 98.522 49.8711 98.334 49.8871ZM104.894 44.7771C104.846 44.5491 104.823 44.3931 104.779 44.2431C104.447 43.0881 104.119 41.9311 103.779 40.7791C103.424 39.5971 103.038 38.4241 102.569 37.2791C102.526 37.0998 102.43 36.9374 102.295 36.8121C102.251 36.8501 102.189 36.88 102.163 36.929C102.086 37.0703 102.02 37.2167 101.963 37.3671C101.663 38.2121 101.338 39.0511 101.071 39.9081C100.623 41.3471 100.212 42.7971 99.788 44.2431C99.7074 44.4104 99.6942 44.6022 99.751 44.7791C99.8728 44.7992 99.9956 44.8122 100.119 44.8181C101.548 44.8181 102.977 44.8181 104.405 44.8181C104.543 44.8181 104.681 44.7961 104.894 44.7771Z" fill="#79A207"/>
<path d="M59.77 54.246C59.55 54.26 59.393 54.277 59.235 54.279C57.4595 54.353 55.6813 54.3323 53.908 54.217C53.8803 54.1184 53.8585 54.0182 53.843 53.917C53.831 53.774 53.838 53.628 53.838 53.484V45.718C53.838 45.589 53.831 45.46 53.838 45.332C53.8492 45.0903 53.7787 44.8518 53.6379 44.655C53.1799 43.957 52.7276 43.2547 52.2809 42.548C50.6955 40.0718 49.2431 37.5128 47.9299 34.882C47.2848 33.5884 46.7135 32.2593 46.2189 30.901C46.1759 30.78 46.137 30.658 46.1 30.535C46.0948 30.4989 46.0948 30.4622 46.1 30.426C46.211 30.318 46.3619 30.355 46.4999 30.354C47.4799 30.354 48.461 30.354 49.441 30.354H51.9999C52.1406 30.4641 52.2365 30.6215 52.27 30.797C53.0769 32.9977 54.0431 35.1367 55.161 37.197C55.597 37.997 56.061 38.791 56.519 39.585C56.5743 39.7275 56.6698 39.8509 56.7939 39.94C56.9729 39.905 57.009 39.77 57.074 39.665C57.7513 38.553 58.3846 37.4173 58.9739 36.258C59.8838 34.4856 60.6853 32.6595 61.374 30.79C61.4133 30.6853 61.4553 30.5814 61.4999 30.478C61.5265 30.4387 61.5574 30.4025 61.592 30.37C62.214 30.326 62.871 30.357 63.527 30.351C64.202 30.346 64.8769 30.351 65.5519 30.351C66.2079 30.351 66.864 30.342 67.517 30.36C67.5582 30.5278 67.5324 30.705 67.4449 30.854C67.0809 31.884 66.659 32.891 66.202 33.883C64.9736 36.501 63.5822 39.0393 62.036 41.483C61.39 42.519 60.7249 43.544 60.0549 44.564C59.8715 44.8279 59.7753 45.1426 59.78 45.464C59.791 48.18 59.787 50.896 59.786 53.612C59.781 53.8 59.776 53.99 59.77 54.246Z" fill="#565656"/>
<path d="M109.708 7.918C109.787 8.96302 109.692 10.0139 109.428 11.028C108.968 12.724 107.864 14.1736 106.352 15.069C106.081 15.242 105.801 15.3983 105.511 15.537C104.959 15.7999 104.45 16.1448 104.001 16.56C103.823 16.722 103.645 16.886 103.461 17.041C103.364 17.1247 103.258 17.1978 103.146 17.259C103.114 17.2772 103.079 17.2882 103.043 17.2915C103.006 17.2947 102.97 17.29 102.935 17.2778C102.901 17.2655 102.87 17.246 102.843 17.2205C102.817 17.195 102.797 17.1641 102.784 17.13C102.738 17.0279 102.705 16.9209 102.684 16.811C102.646 16.6221 102.619 16.4311 102.603 16.239C102.374 14.3139 102.787 12.3669 103.78 10.7016C104.773 9.0362 106.288 7.74601 108.091 7.03202C108.372 6.91402 108.662 6.81901 108.949 6.71601C109.024 6.68667 109.101 6.66359 109.179 6.64701C109.556 6.57901 109.693 6.67901 109.707 7.05701C109.718 7.39101 109.708 7.729 109.708 7.918Z" fill="#79A207"/>
<path d="M109.703 17.2271C109.726 18.0812 109.634 18.9345 109.429 19.7641C109.219 20.6018 108.839 21.3875 108.313 22.0726C107.787 22.7577 107.126 23.3276 106.371 23.7471C105.413 24.3076 104.502 24.9429 103.644 25.6471C103.482 25.7771 103.307 25.8919 103.124 25.9901C103.094 26.0111 103.059 26.0244 103.022 26.0288C102.986 26.0333 102.948 26.0287 102.914 26.0154C102.88 26.0022 102.849 25.9808 102.825 25.953C102.8 25.9252 102.783 25.8919 102.775 25.8561C102.725 25.7206 102.691 25.5796 102.675 25.4361C102.58 24.5719 102.582 23.6999 102.68 22.8361C102.78 21.7602 103.091 20.7148 103.597 19.7598C104.102 18.8047 104.791 17.959 105.624 17.2711C106.629 16.4636 107.77 15.8422 108.994 15.4361C109.115 15.3939 109.241 15.3641 109.368 15.3471C109.432 15.3386 109.498 15.3545 109.551 15.3914C109.604 15.4284 109.642 15.4838 109.657 15.5471C109.683 15.6889 109.697 15.8328 109.698 15.9771C109.707 16.3641 109.703 16.7501 109.703 17.2271Z" fill="#79A207"/>
<path d="M100.966 26.2181C100.913 26.1885 100.861 26.1551 100.813 26.1181C100.046 25.4574 99.2292 24.8556 98.371 24.3181C97.8737 23.9921 97.3793 23.6621 96.888 23.3281C96.2137 22.8712 95.6422 22.2785 95.2101 21.588C94.7781 20.8974 94.495 20.1243 94.379 19.3181C94.2019 18.1268 94.1376 16.9214 94.187 15.7181C94.186 15.6536 94.192 15.5892 94.205 15.5261C94.2193 15.4714 94.2509 15.4229 94.295 15.3877C94.3392 15.3526 94.3936 15.3327 94.45 15.3311C94.5302 15.3294 94.6102 15.3385 94.688 15.3581C96.7429 15.8551 98.5371 17.1038 99.717 18.8581C100.336 19.802 100.738 20.8718 100.893 21.9901C100.942 22.2912 100.973 22.5951 100.984 22.9001C101.018 23.5416 101.099 24.1797 101.228 24.8091C101.304 25.239 101.249 25.6819 101.07 26.0801C101.04 26.1292 101.005 26.1754 100.966 26.2181Z" fill="#79A207"/>
<path d="M100.814 17.336C100.762 17.3095 100.712 17.2784 100.665 17.243C99.9735 16.618 99.2211 16.0639 98.419 15.589C98.065 15.368 97.714 15.141 97.357 14.926C96.4228 14.3473 95.66 13.5298 95.147 12.558C94.5751 11.5318 94.2067 10.4049 94.062 9.23904C93.9727 8.58615 93.9842 7.92344 94.096 7.27404C94.1377 7.07095 94.2018 6.87309 94.287 6.68404C94.2985 6.65798 94.315 6.63447 94.3357 6.61488C94.3563 6.59528 94.3807 6.58001 94.4073 6.56995C94.4339 6.5599 94.4623 6.55525 94.4907 6.5563C94.5192 6.55734 94.5471 6.56406 94.573 6.57604C94.6339 6.59627 94.6931 6.62135 94.75 6.65104C95.698 7.15904 96.6499 7.65104 97.5889 8.18304C98.205 8.53146 98.7743 8.95689 99.283 9.44904C100.141 10.2848 100.703 11.3778 100.883 12.562C100.974 13.1168 101.021 13.6779 101.023 14.24C101.042 15.236 100.993 16.232 100.874 17.221C100.873 17.248 100.849 17.273 100.814 17.336Z" fill="#79A207"/>
<path d="M101.916 0.618042C101.956 0.646118 101.993 0.679775 102.024 0.718033C102.573 1.62462 103.06 2.56746 103.481 3.54004C103.839 4.37025 103.98 5.27838 103.888 6.17804C103.841 6.56039 103.75 6.93595 103.616 7.29704C103.285 8.15248 102.841 8.95967 102.295 9.69704C102.054 10.042 101.874 10.049 101.616 9.71504C100.757 8.68398 100.198 7.43702 99.999 6.11003C99.8894 5.16095 100.058 4.20047 100.483 3.34503C100.907 2.46203 101.37 1.59804 101.818 0.727036C101.846 0.68677 101.879 0.650161 101.916 0.618042Z" fill="#79A207"/>
</svg>
