<svg width="278" height="121" viewBox="0 0 278 121" fill="none" xmlns="http://www.w3.org/2000/svg">
<path d="M35.9939 49.989C36.1819 50.417 36.358 50.805 36.523 51.198C38.539 55.998 40.732 60.714 43.21 65.298C44.41 67.516 45.672 69.698 47.025 71.829C47.163 72.046 47.248 72.329 47.546 72.412C47.821 72.297 47.914 72.032 48.053 71.812C49.488 69.544 50.806 67.212 52.059 64.835C54.439 60.325 56.553 55.69 58.519 50.987C58.652 50.668 58.796 50.354 58.938 50.03C59.8023 49.951 60.6708 49.9293 61.538 49.965C62.37 49.951 63.202 49.965 64.038 49.965C64.897 49.965 65.756 49.955 66.614 49.965C67.4532 49.9298 68.2937 49.9512 69.13 50.029C69.159 50.21 69.196 50.362 69.206 50.515C69.218 50.729 69.211 50.945 69.211 51.159C69.211 63.6664 69.211 76.173 69.211 88.679C69.211 89.025 69.202 89.372 69.197 89.758C69.0161 89.8189 68.8314 89.8673 68.644 89.903C68.4297 89.9187 68.2147 89.9224 68 89.914H61.318C61.13 89.914 60.942 89.914 60.754 89.909C60.217 89.883 60.146 89.814 60.128 89.302C60.122 89.142 60.128 88.98 60.128 88.819C60.128 83.9623 60.128 79.1047 60.128 74.246C60.128 72.529 60.228 70.815 60.394 69.105C60.45 68.518 60.515 67.932 60.568 67.345C60.582 67.189 60.568 67.03 60.568 66.783C60.419 66.866 60.31 66.89 60.268 66.956C60.13 67.184 60.011 67.425 59.892 67.665C57.5192 72.4771 54.8764 77.1512 51.976 81.665C51.831 81.89 51.676 82.112 51.527 82.333C51.4676 82.4065 51.4038 82.4763 51.336 82.542C50.511 82.634 49.655 82.574 48.801 82.584C47.969 82.595 47.137 82.584 46.301 82.584H43.717C43.53 82.315 43.357 82.079 43.197 81.833C40.1904 77.1956 37.4526 72.3893 34.997 67.438C34.9069 67.1675 34.7607 66.9191 34.568 66.709C34.352 66.782 34.3929 66.936 34.4029 67.055C34.4729 67.91 34.555 68.764 34.627 69.619C34.667 70.1 34.721 70.581 34.727 71.063C34.7583 75.3297 34.7833 79.5964 34.802 83.863C34.81 85.553 34.807 87.244 34.802 88.935C34.802 89.86 34.759 89.904 33.863 89.906C31.4743 89.9114 29.0856 89.9114 26.697 89.906C26.434 89.906 26.172 89.872 25.887 89.853C25.8343 89.6896 25.7942 89.5225 25.767 89.353C25.747 89.113 25.755 88.87 25.755 88.629C25.755 76.149 25.755 63.6693 25.755 51.19C25.7051 50.8109 25.7392 50.4255 25.855 50.061C26.1561 49.9529 26.4788 49.9186 26.796 49.961C29.534 49.957 32.2716 49.957 35.009 49.961C35.334 49.96 35.6519 49.978 35.9939 49.989Z" fill="#565656"/>
<path d="M252.169 89.804C251.932 89.8527 251.692 89.8861 251.451 89.904C248.66 89.91 245.869 89.904 243.078 89.916C242.866 89.9217 242.656 89.8709 242.47 89.7686C242.284 89.6663 242.129 89.5163 242.02 89.334C239.071 85.242 236.108 81.161 233.387 76.909C231.463 73.902 229.596 70.864 227.869 67.74C227.749 67.522 227.69 67.234 227.343 67.12C227.304 67.2199 227.277 67.3244 227.264 67.431C227.318 69.254 227.42 71.077 227.429 72.9C227.453 78.214 227.441 83.528 227.441 88.841C227.444 89.0556 227.435 89.2703 227.414 89.484C227.414 89.538 227.403 89.5914 227.382 89.6411C227.361 89.6908 227.33 89.7356 227.291 89.773C227.252 89.8104 227.206 89.8395 227.155 89.8585C227.105 89.8776 227.051 89.8863 226.997 89.884C226.783 89.9027 226.569 89.9103 226.354 89.907C224.046 89.907 221.738 89.907 219.43 89.907C219.139 89.907 218.849 89.879 218.537 89.864C218.48 89.7028 218.436 89.5372 218.405 89.369C218.383 89.129 218.392 88.887 218.392 88.645C218.392 76.1656 218.392 63.6863 218.392 51.207C218.348 50.8348 218.378 50.4577 218.479 50.097C218.741 49.9527 219.046 49.9046 219.34 49.961C221.648 49.955 223.956 49.955 226.264 49.961H227.978C228.122 50.226 228.257 50.453 228.378 50.69C232.498 59.011 237.168 67.0478 242.358 74.747C242.522 74.993 242.686 75.238 242.863 75.474C242.95 75.5597 243.047 75.6352 243.152 75.699C243.195 75.5878 243.225 75.472 243.241 75.354C243.235 74.979 243.213 74.603 243.197 74.228C243.16 73.317 243.097 72.406 243.09 71.495C243.081 64.6516 243.079 57.8083 243.085 50.965C243.085 50.675 243.103 50.385 243.113 50.058C243.305 50.0138 243.5 49.9834 243.697 49.967C246.297 49.961 248.9 49.961 251.507 49.967C251.703 49.9788 251.897 50.0005 252.091 50.032C252.124 50.1906 252.15 50.3508 252.167 50.512C252.18 50.726 252.172 50.941 252.172 51.155V89.809L252.169 89.804Z" fill="#565656"/>
<path d="M141.276 50.0341C141.583 50.0021 141.791 49.962 141.999 49.962C147.043 49.962 152.089 49.9 157.131 50.008C160.86 50.0482 164.495 51.1779 167.59 53.258C171.422 55.7897 174.094 59.7381 175.019 64.237C175.478 66.4448 175.657 68.7016 175.552 70.954C175.517 73.1289 175.156 75.2863 174.481 77.354C173.617 80.0793 172.101 82.5526 170.064 84.5594C168.028 86.5661 165.533 88.0458 162.795 88.87C160.595 89.5783 158.295 89.9261 155.984 89.9C151.369 89.912 146.755 89.9147 142.14 89.908H142.059C141.291 89.888 141.259 89.853 141.242 89.07C141.242 88.882 141.242 88.694 141.242 88.5061C141.242 76.1101 141.242 63.714 141.242 51.318C141.242 50.918 141.259 50.5181 141.276 50.0341ZM151.262 58.501C151.162 58.8055 151.133 59.1286 151.176 59.446C151.176 66.446 151.176 73.446 151.176 80.446C151.176 80.607 151.167 80.769 151.181 80.929C151.195 81.089 151.231 81.236 151.252 81.356C151.523 81.517 151.842 81.5762 152.152 81.523C153.171 81.53 154.19 81.523 155.209 81.523C156.229 81.5241 157.246 81.4203 158.244 81.2131C159.601 80.9806 160.873 80.3951 161.932 79.5155C162.991 78.6359 163.799 77.4932 164.277 76.202C164.356 76.002 164.424 75.802 164.493 75.596C164.984 74.09 165.249 72.5197 165.28 70.936C165.345 69.6229 165.3 68.3067 165.146 67.001C165.007 65.8022 164.716 64.626 164.279 63.501C163.613 61.7518 162.321 60.3123 160.653 59.462C159.48 58.8587 158.193 58.5107 156.876 58.441C155.27 58.358 153.66 58.368 152.051 58.341C151.777 58.3031 151.497 58.3595 151.259 58.501H151.262Z" fill="#565656"/>
<path d="M98.793 82.5631C98.411 82.5391 98.12 82.5061 97.829 82.5061C94.0716 82.5021 90.314 82.5021 86.556 82.5061C86.2161 82.4645 85.8714 82.5214 85.563 82.67C85.486 82.944 85.393 83.2491 85.316 83.558C84.872 85.3527 84.43 87.1484 83.99 88.9451C83.945 89.1271 83.89 89.306 83.845 89.489C83.8244 89.6096 83.7598 89.7182 83.6637 89.7937C83.5677 89.8693 83.447 89.9065 83.325 89.8981C83.137 89.9031 82.9499 89.9101 82.7619 89.9101C80.0513 89.9101 77.3403 89.9101 74.629 89.9101C74.3135 89.9666 73.9882 89.9192 73.702 89.7751C73.6195 89.5134 73.6414 89.23 73.763 88.9841C74.531 86.1931 75.2629 83.392 76.0719 80.612C77.6999 74.998 79.45 69.4221 81.372 63.903C82.909 59.495 84.5719 55.1391 86.5249 50.8951C86.6579 50.6051 86.805 50.322 86.95 50.028C87.8143 49.9497 88.6828 49.9283 89.55 49.9641C90.435 49.9511 91.321 49.9641 92.207 49.9641C93.066 49.9641 93.925 49.9641 94.784 49.9641C95.643 49.9641 96.495 49.9721 97.384 49.9771C97.555 50.3191 97.719 50.6241 97.863 50.9371C99.344 54.1841 100.678 57.4911 101.902 60.8371C105.264 70.0371 108.177 79.375 110.641 88.851C110.757 89.1657 110.81 89.5 110.797 89.8351C110.588 89.8704 110.377 89.8941 110.165 89.9061C107.24 89.9101 104.315 89.9101 101.388 89.9061C100.664 89.9061 100.635 89.8811 100.46 89.1851C99.9939 87.3401 99.542 85.4911 99.082 83.6441C98.998 83.3091 98.903 82.9761 98.793 82.5631ZM96.441 73.9631C96.46 73.9061 96.496 73.8531 96.49 73.8071C96.4709 73.6482 96.4412 73.4909 96.401 73.336C95.51 70.049 94.566 66.7781 93.435 63.5651C93.15 62.7561 92.818 61.9651 92.501 61.1651C92.435 61.0011 92.401 60.7961 92.113 60.7721C92.0252 60.8935 91.9463 61.0212 91.877 61.1541C91.7237 61.4961 91.58 61.8427 91.446 62.194C90.378 64.975 89.535 67.8281 88.706 70.6871C88.445 71.5871 88.198 72.4931 87.951 73.3981C87.896 73.5981 87.81 73.8111 87.982 74.0121C88.2549 74.123 88.5523 74.1596 88.844 74.1181C90.481 74.1181 92.118 74.1181 93.755 74.1181C94.426 74.1181 95.098 74.1181 95.768 74.1181C96.002 74.1111 96.259 74.157 96.441 73.959V73.9631Z" fill="#565656"/>
<path d="M188.802 82.574C188.702 82.927 188.618 83.18 188.553 83.438C188.077 85.336 187.603 87.234 187.13 89.132C187.073 89.361 186.994 89.584 186.913 89.849C186.613 89.871 186.35 89.907 186.087 89.907C183.243 89.911 180.398 89.911 177.553 89.907C177.313 89.9455 177.067 89.9033 176.853 89.787C176.832 89.492 176.876 89.1961 176.982 88.92C178.136 84.483 179.403 80.079 180.746 75.696C182.473 70.057 184.294 64.449 186.389 58.934C187.379 56.327 188.431 53.744 189.589 51.207C189.767 50.818 189.957 50.435 190.149 50.034C190.336 49.998 190.526 49.9739 190.716 49.962C193.829 49.958 196.942 49.958 200.055 49.962C200.215 49.962 200.374 49.985 200.534 49.997C200.78 50.2867 200.968 50.6207 201.088 50.981C202.336 53.713 203.468 56.494 204.532 59.304C207.104 66.104 209.332 73.014 211.384 79.986C212.267 82.994 213.063 86.028 213.896 89.051C213.959 89.28 213.996 89.516 214.056 89.8C213.868 89.8488 213.677 89.8822 213.484 89.9C212.76 89.912 212.035 89.907 211.31 89.907C209.163 89.907 207.016 89.907 204.869 89.907C204.541 89.9412 204.21 89.9072 203.896 89.807C203.758 89.552 203.662 89.276 203.613 88.99C203.136 87.0646 202.657 85.14 202.174 83.216C202.123 83.016 202.042 82.816 201.96 82.572C201.681 82.548 201.419 82.505 201.16 82.505C197.323 82.4996 193.485 82.4996 189.647 82.505C189.379 82.507 189.115 82.548 188.802 82.574ZM199.755 74.043C199.674 73.662 199.635 73.402 199.563 73.151C199.009 71.222 198.463 69.291 197.885 67.368C197.293 65.393 196.647 63.435 195.864 61.526C195.792 61.2268 195.633 60.9556 195.407 60.747C195.334 60.81 195.23 60.86 195.187 60.942C195.06 61.1782 194.95 61.4227 194.857 61.674C194.352 63.085 193.812 64.486 193.367 65.916C192.619 68.316 191.932 70.739 191.224 73.154C191.089 73.4351 191.068 73.7572 191.163 74.054C191.366 74.0864 191.571 74.1081 191.777 74.119C194.162 74.123 196.548 74.123 198.933 74.119C199.168 74.118 199.403 74.075 199.759 74.043H199.755Z" fill="#565656"/>
<path d="M124.414 89.852C124.048 89.876 123.785 89.904 123.522 89.908C120.558 90.0328 117.589 89.9994 114.628 89.808C114.581 89.6419 114.545 89.4729 114.52 89.302C114.499 89.062 114.511 88.819 114.511 88.578V75.618C114.511 75.403 114.499 75.188 114.511 74.974C114.528 74.5697 114.407 74.1716 114.17 73.844C113.405 72.678 112.65 71.5053 111.905 70.326C109.258 66.1914 106.833 61.9187 104.64 57.526C103.563 55.3662 102.609 53.147 101.784 50.879C101.712 50.679 101.645 50.4753 101.584 50.268C101.578 50.2069 101.58 50.1452 101.592 50.085C101.778 49.906 102.03 49.966 102.258 49.966C103.895 49.96 105.532 49.966 107.168 49.966H111.44C111.675 50.1499 111.835 50.4123 111.892 50.705C113.238 54.382 114.851 57.9558 116.718 61.398C117.446 62.742 118.224 64.059 118.985 65.384C119.078 65.622 119.238 65.8283 119.445 65.978C119.745 65.92 119.805 65.694 119.912 65.518C121.045 63.662 122.104 61.766 123.089 59.83C124.605 56.8705 125.94 53.8223 127.089 50.702C127.156 50.526 127.225 50.352 127.298 50.18C127.343 50.1147 127.394 50.0543 127.452 50C128.492 49.925 129.588 49.977 130.682 49.968C131.809 49.959 132.936 49.968 134.063 49.968C135.163 49.968 136.255 49.952 137.345 49.982C137.414 50.2621 137.371 50.5581 137.225 50.807C136.617 52.527 135.912 54.207 135.149 55.864C133.098 60.2357 130.775 64.4744 128.193 68.555C127.115 70.285 126.005 71.995 124.886 73.699C124.58 74.1388 124.42 74.6633 124.427 75.199C124.446 79.734 124.438 84.269 124.437 88.799C124.44 89.107 124.425 89.424 124.414 89.852Z" fill="#565656"/>
<path d="M207.792 12.498C207.924 14.2426 207.766 15.9969 207.325 17.69C206.556 20.5213 204.713 22.9415 202.189 24.437C201.739 24.7256 201.271 24.9868 200.789 25.219C199.867 25.6566 199.017 26.2322 198.268 26.926C197.968 27.196 197.674 27.469 197.368 27.726C197.206 27.8657 197.03 27.9877 196.842 28.09C196.789 28.1197 196.731 28.1378 196.67 28.1428C196.61 28.1479 196.55 28.1399 196.493 28.1194C196.436 28.0989 196.384 28.0664 196.341 28.0241C196.297 27.9817 196.264 27.9305 196.242 27.874C196.163 27.7043 196.106 27.5256 196.07 27.342C196.007 27.0265 195.962 26.7076 195.935 26.387C195.552 23.1743 196.243 19.9253 197.898 17.1457C199.554 14.366 202.082 12.2117 205.089 11.018C205.557 10.818 206.043 10.663 206.521 10.49C206.646 10.4414 206.775 10.4029 206.906 10.375C207.534 10.261 207.763 10.429 207.788 11.06C207.809 11.618 207.792 12.186 207.792 12.498Z" fill="#79A207"/>
<path d="M207.784 28.044C207.822 29.4704 207.669 30.8955 207.327 32.281C206.976 33.6796 206.342 34.9912 205.463 36.1349C204.585 37.2786 203.482 38.2299 202.221 38.93C200.622 39.8644 199.1 40.9234 197.668 42.097C197.396 42.3141 197.105 42.5059 196.799 42.67C196.748 42.7052 196.69 42.7276 196.629 42.7351C196.568 42.7426 196.506 42.7351 196.448 42.7131C196.391 42.6911 196.34 42.6553 196.299 42.6089C196.259 42.5625 196.23 42.5069 196.216 42.447C196.135 42.2207 196.082 41.9858 196.056 41.747C195.899 40.3047 195.902 38.8495 196.065 37.408C196.231 35.6116 196.751 33.8659 197.595 32.2713C198.438 30.6767 199.589 29.2648 200.981 28.117C202.659 26.7692 204.564 25.7316 206.606 25.053C206.809 24.9832 207.018 24.9337 207.231 24.905C207.339 24.8916 207.448 24.9187 207.537 24.9811C207.627 25.0435 207.69 25.1368 207.714 25.243C207.757 25.4799 207.78 25.7201 207.781 25.961C207.79 26.604 207.784 27.248 207.784 28.044Z" fill="#79A207"/>
<path d="M193.196 43.0489C193.107 43.0019 193.022 42.9485 192.941 42.889C191.66 41.7851 190.297 40.7799 188.864 39.8819C188.034 39.3379 187.208 38.7869 186.387 38.2289C185.261 37.466 184.307 36.4765 183.586 35.3236C182.865 34.1707 182.392 32.88 182.199 31.5339C181.903 29.5431 181.796 27.5289 181.878 25.518C181.877 25.4105 181.887 25.3033 181.908 25.198C181.932 25.1065 181.985 25.0253 182.059 24.9665C182.133 24.9077 182.224 24.8745 182.318 24.8719C182.453 24.8696 182.587 24.8847 182.718 24.917C186.149 25.7442 189.146 27.8271 191.118 30.755C192.153 32.3305 192.823 34.1168 193.081 35.984C193.164 36.4862 193.215 36.9932 193.234 37.502C193.29 38.5733 193.426 39.6389 193.641 40.6899C193.767 41.4077 193.676 42.1468 193.378 42.8119C193.325 42.8966 193.264 42.9759 193.196 43.0489Z" fill="#79A207"/>
<path d="M192.942 28.226C192.855 28.1818 192.772 28.1303 192.694 28.072C191.54 27.0278 190.283 26.1022 188.944 25.309C188.353 24.94 187.767 24.561 187.17 24.202C185.61 23.2361 184.337 21.8715 183.481 20.249C182.526 18.5356 181.911 16.6538 181.67 14.707C181.52 13.617 181.539 12.5102 181.727 11.426C181.797 11.0872 181.903 10.757 182.044 10.441C182.063 10.3976 182.091 10.3585 182.126 10.3259C182.16 10.2934 182.201 10.268 182.245 10.2514C182.29 10.2347 182.337 10.2271 182.385 10.2289C182.432 10.2307 182.479 10.242 182.522 10.262C182.625 10.2952 182.726 10.337 182.822 10.387C184.405 11.235 186 12.061 187.562 12.944C188.59 13.5269 189.54 14.2368 190.391 15.057C191.825 16.4529 192.764 18.2787 193.065 20.257C193.218 21.1826 193.296 22.1189 193.299 23.057C193.331 24.7194 193.249 26.3821 193.051 28.033C193.041 28.08 193 28.118 192.942 28.226Z" fill="#79A207"/>
<path d="M194.782 0.312988C194.851 0.373988 194.927 0.41299 194.963 0.47599C195.878 1.99135 196.689 3.56734 197.39 5.19299C197.987 6.57793 198.222 8.09228 198.071 9.59299C197.992 10.2316 197.839 10.8589 197.615 11.462C197.064 12.8897 196.324 14.237 195.415 15.468C195.015 16.044 194.715 16.057 194.281 15.499C192.847 13.777 191.913 11.6948 191.581 9.47899C191.398 7.89454 191.678 6.29096 192.389 4.86299C193.098 3.38899 193.87 1.94599 194.619 0.49099C194.666 0.425379 194.721 0.365621 194.782 0.312988Z" fill="#79A207"/>
<path d="M22.168 108.693H0.458984V110.02H22.168V108.693Z" fill="#79A207"/>
<path d="M277.459 108.693H255.75V110.02H277.459V108.693Z" fill="#79A207"/>
<path d="M38.9897 112.179C38.5677 112.474 38.1129 112.694 37.6253 112.84C37.1377 112.985 36.6314 113.058 36.1063 113.058C35.4358 113.058 34.8099 112.941 34.2285 112.706C33.6518 112.467 33.1525 112.141 32.7306 111.729C32.3133 111.316 31.9851 110.821 31.746 110.245C31.5115 109.668 31.3943 109.04 31.3943 108.36C31.3943 107.661 31.5092 107.021 31.7389 106.44C31.9734 105.859 32.2945 105.359 32.7024 104.942C33.115 104.52 33.605 104.194 34.1723 103.965C34.7443 103.73 35.3655 103.613 36.0359 103.613C36.5892 103.613 37.1166 103.7 37.6183 103.873C38.1246 104.047 38.5865 104.309 39.0037 104.661L38.2723 105.828C37.991 105.594 37.6488 105.406 37.2456 105.266C36.8423 105.125 36.4579 105.055 36.0922 105.055C35.6468 105.055 35.2436 105.139 34.8826 105.308C34.5262 105.472 34.2191 105.699 33.9613 105.99C33.7034 106.276 33.5041 106.616 33.3635 107.01C33.2228 107.404 33.1525 107.828 33.1525 108.283C33.1525 108.723 33.2228 109.143 33.3635 109.541C33.5041 109.935 33.7034 110.287 33.9613 110.596C34.2191 110.906 34.5239 111.154 34.8755 111.342C35.2319 111.525 35.6187 111.616 36.0359 111.616C36.3266 111.616 36.5821 111.602 36.8025 111.574C37.0275 111.541 37.2291 111.497 37.4073 111.44C37.5902 111.379 37.7543 111.316 37.8996 111.25C38.0449 111.18 38.1856 111.105 38.3216 111.025L38.9897 112.179ZM41.6762 108.332C41.6762 108.834 41.7488 109.291 41.8942 109.703C42.0442 110.111 42.2552 110.463 42.5271 110.758C42.7991 111.049 43.1249 111.279 43.5047 111.447C43.8844 111.611 44.3111 111.694 44.7846 111.694C45.2582 111.694 45.6848 111.604 46.0646 111.426C46.449 111.248 46.7749 111.004 47.0421 110.695C47.3141 110.381 47.5227 110.022 47.668 109.619C47.8181 109.211 47.8931 108.782 47.8931 108.332C47.8931 107.854 47.8181 107.408 47.668 106.996C47.5227 106.583 47.3141 106.229 47.0421 105.934C46.7749 105.638 46.449 105.406 46.0646 105.237C45.6848 105.064 45.2582 104.977 44.7846 104.977C44.4002 104.977 44.0251 105.055 43.6594 105.209C43.2937 105.359 42.9608 105.58 42.6607 105.87C42.3607 106.156 42.1216 106.508 41.9434 106.925C41.7652 107.343 41.6762 107.811 41.6762 108.332ZM39.918 108.332C39.918 107.671 40.0446 107.054 40.2978 106.482C40.5509 105.906 40.8955 105.406 41.3316 104.984C41.7723 104.558 42.288 104.222 42.8788 103.979C43.4742 103.735 44.1095 103.613 44.7846 103.613C45.5207 103.613 46.1865 103.735 46.7819 103.979C47.382 104.222 47.8931 104.558 48.315 104.984C48.7417 105.406 49.0722 105.906 49.3067 106.482C49.5411 107.054 49.6583 107.671 49.6583 108.332C49.6583 108.998 49.5317 109.617 49.2785 110.189C49.03 110.76 48.6854 111.26 48.2447 111.686C47.8087 112.113 47.2953 112.448 46.7046 112.692C46.1185 112.936 45.4785 113.058 44.7846 113.058C44.0954 113.058 43.4554 112.943 42.8647 112.713C42.2739 112.479 41.7606 112.153 41.3245 111.736C40.8885 111.318 40.5439 110.821 40.2907 110.245C40.0422 109.663 39.918 109.026 39.918 108.332ZM51.1914 104.084L52.7527 103.613L56.9934 110.568H57.0215L56.909 103.796H58.5898L58.5125 112.587L56.8246 113.058L52.6894 106.145L52.6613 106.166L52.7949 112.875H51.1141L51.1914 104.084ZM60.6575 104.084L62.2187 103.613L66.4595 110.568H66.4876L66.3751 103.796H68.0559L67.9785 112.587L66.2907 113.058L62.1554 106.145L62.1273 106.166L62.2609 112.875H60.5801L60.6575 104.084ZM70.1376 103.796H74.9901V105.237H71.8113L71.7902 107.579H74.9409V108.944H71.7762L71.7621 111.433H74.9901V112.875H70.0461L70.1376 103.796ZM84.1397 112.179C83.7177 112.474 83.263 112.694 82.7753 112.84C82.2877 112.985 81.7814 113.058 81.2563 113.058C80.5858 113.058 79.9599 112.941 79.3785 112.706C78.8019 112.467 78.3025 112.141 77.8806 111.729C77.4633 111.316 77.1351 110.821 76.896 110.245C76.6616 109.668 76.5444 109.04 76.5444 108.36C76.5444 107.661 76.6592 107.021 76.889 106.44C77.1234 105.859 77.4446 105.359 77.8524 104.942C78.265 104.52 78.755 104.194 79.3223 103.965C79.8943 103.73 80.5155 103.613 81.186 103.613C81.7392 103.613 82.2666 103.7 82.7683 103.873C83.2747 104.047 83.7365 104.309 84.1538 104.661L83.4224 105.828C83.1411 105.594 82.7988 105.406 82.3956 105.266C81.9924 105.125 81.6079 105.055 81.2422 105.055C80.7968 105.055 80.3936 105.139 80.0326 105.308C79.6763 105.472 79.3692 105.699 79.1113 105.99C78.8534 106.276 78.6542 106.616 78.5135 107.01C78.3729 107.404 78.3025 107.828 78.3025 108.283C78.3025 108.723 78.3729 109.143 78.5135 109.541C78.6542 109.935 78.8534 110.287 79.1113 110.596C79.3692 110.906 79.6739 111.154 80.0256 111.342C80.3819 111.525 80.7687 111.616 81.186 111.616C81.4766 111.616 81.7322 111.602 81.9525 111.574C82.1776 111.541 82.3792 111.497 82.5573 111.44C82.7402 111.379 82.9043 111.316 83.0496 111.25C83.195 111.18 83.3356 111.105 83.4716 111.025L84.1397 112.179ZM87.1778 105.237H84.632L84.6461 103.796H91.3764L91.3623 105.237H88.8516L88.7883 112.875H87.1145L87.1778 105.237ZM92.6563 103.796H94.3371L94.2598 112.875H92.579L92.6563 103.796ZM96.3555 104.084L97.9168 103.613L102.158 110.568H102.186L102.073 103.796H103.754L103.677 112.587L101.989 113.058L97.8535 106.145L97.8254 106.166L97.959 112.875H96.2782L96.3555 104.084ZM111.567 108.269H113.318L113.255 112.404C112.758 112.601 112.252 112.758 111.736 112.875C111.22 112.997 110.712 113.058 110.21 113.058C109.521 113.058 108.881 112.943 108.29 112.713C107.699 112.479 107.186 112.153 106.75 111.736C106.314 111.318 105.969 110.821 105.716 110.245C105.468 109.663 105.343 109.026 105.343 108.332C105.343 107.671 105.47 107.054 105.723 106.482C105.976 105.906 106.321 105.406 106.757 104.984C107.198 104.558 107.713 104.222 108.304 103.979C108.9 103.735 109.535 103.613 110.21 103.613C110.796 103.613 111.333 103.672 111.82 103.789C112.313 103.906 112.758 104.07 113.157 104.281L112.531 105.54C112.189 105.371 111.835 105.235 111.469 105.132C111.103 105.029 110.684 104.977 110.21 104.977C109.826 104.977 109.45 105.055 109.085 105.209C108.719 105.359 108.386 105.58 108.086 105.87C107.786 106.156 107.547 106.508 107.369 106.925C107.191 107.343 107.102 107.811 107.102 108.332C107.102 108.834 107.174 109.291 107.32 109.703C107.47 110.111 107.681 110.463 107.952 110.758C108.224 111.049 108.55 111.279 108.93 111.447C109.31 111.611 109.736 111.694 110.21 111.694C110.454 111.694 110.686 111.672 110.906 111.63C111.127 111.583 111.326 111.527 111.504 111.461L111.567 108.269ZM118.002 103.796H123.031L123.017 105.237H119.676L119.669 107.579H122.981L122.96 109.021H119.641L119.627 112.875H117.911L118.002 103.796ZM124.486 113.058L122.925 112.587L126.42 103.796H127.961L131.203 112.587L129.564 113.058L128.671 110.463H125.506L124.486 113.058ZM127.166 105.554H127.138L125.991 109.091H128.214L127.166 105.554ZM132.532 103.796H135.408C135.957 103.796 136.426 103.866 136.815 104.007C137.204 104.143 137.523 104.33 137.771 104.569C138.024 104.804 138.207 105.08 138.32 105.399C138.432 105.718 138.489 106.058 138.489 106.419C138.489 107 138.329 107.493 138.01 107.896C137.691 108.294 137.265 108.59 136.73 108.782L139.318 112.165L137.82 113.058L135.296 109.556C135.15 109.345 134.951 109.239 134.698 109.239H134.17L134.156 112.875H132.44L132.532 103.796ZM135.232 107.875C135.359 107.875 135.507 107.858 135.675 107.826C135.849 107.788 136.013 107.72 136.168 107.622C136.322 107.518 136.454 107.375 136.562 107.193C136.674 107.01 136.73 106.771 136.73 106.475C136.73 106.025 136.58 105.695 136.28 105.484C135.985 105.268 135.624 105.16 135.197 105.16H134.227L134.199 107.875H135.232ZM141.695 103.796H143.411L145.613 111.046H145.641L148.166 103.796H149.882L151.218 112.875L149.509 113.058L148.834 105.892H148.806L146.492 112.875H144.762L142.673 105.892H142.652L141.71 113.058L140.092 112.875L141.695 103.796ZM152.941 103.796H157.793V105.237H154.615L154.593 107.579H157.744V108.944H154.579L154.565 111.433H157.793V112.875H152.849L152.941 103.796ZM159.495 103.796H162.372C162.92 103.796 163.389 103.866 163.778 104.007C164.167 104.143 164.486 104.33 164.735 104.569C164.988 104.804 165.171 105.08 165.283 105.399C165.396 105.718 165.452 106.058 165.452 106.419C165.452 107 165.293 107.493 164.974 107.896C164.655 108.294 164.228 108.59 163.694 108.782L166.282 112.165L164.784 113.058L162.259 109.556C162.114 109.345 161.914 109.239 161.661 109.239H161.134L161.12 112.875H159.404L159.495 103.796ZM162.196 107.875C162.322 107.875 162.47 107.858 162.639 107.826C162.812 107.788 162.976 107.72 163.131 107.622C163.286 107.518 163.417 107.375 163.525 107.193C163.638 107.01 163.694 106.771 163.694 106.475C163.694 106.025 163.544 105.695 163.244 105.484C162.948 105.268 162.587 105.16 162.161 105.16H161.19L161.162 107.875H162.196ZM167.576 111.075C167.787 111.225 168.042 111.365 168.342 111.497C168.647 111.628 168.926 111.694 169.179 111.694C169.653 111.694 170.014 111.567 170.262 111.314C170.511 111.061 170.635 110.751 170.635 110.385C170.635 110.085 170.544 109.846 170.361 109.668C170.178 109.485 169.948 109.328 169.672 109.197C169.395 109.061 169.095 108.927 168.771 108.796C168.448 108.66 168.148 108.491 167.871 108.29C167.595 108.083 167.365 107.821 167.182 107.502C166.999 107.183 166.908 106.766 166.908 106.25C166.908 105.884 166.98 105.54 167.126 105.216C167.271 104.888 167.477 104.607 167.745 104.372C168.012 104.138 168.331 103.953 168.701 103.817C169.071 103.681 169.484 103.613 169.939 103.613C170.394 103.613 170.834 103.683 171.261 103.824C171.692 103.965 172.103 104.147 172.492 104.372L171.788 105.575C171.507 105.425 171.233 105.289 170.966 105.167C170.698 105.041 170.401 104.977 170.072 104.977C169.88 104.977 169.695 105.003 169.517 105.055C169.339 105.106 169.179 105.184 169.039 105.287C168.903 105.385 168.792 105.512 168.708 105.666C168.628 105.816 168.589 105.995 168.589 106.201C168.589 106.496 168.682 106.735 168.87 106.918C169.057 107.101 169.289 107.265 169.566 107.411C169.847 107.556 170.154 107.699 170.487 107.84C170.82 107.976 171.127 108.147 171.409 108.353C171.69 108.559 171.924 108.819 172.112 109.134C172.299 109.443 172.393 109.837 172.393 110.315C172.393 110.7 172.318 111.061 172.168 111.398C172.018 111.736 171.81 112.026 171.542 112.27C171.28 112.514 170.963 112.706 170.593 112.847C170.222 112.988 169.822 113.058 169.39 113.058C168.945 113.058 168.521 112.997 168.117 112.875C167.714 112.758 167.316 112.587 166.922 112.362L167.576 111.075ZM178.617 105.237H176.071L176.085 103.796H182.816L182.802 105.237H180.291L180.228 112.875H178.554L178.617 105.237ZM185.172 108.332C185.172 108.834 185.244 109.291 185.39 109.703C185.54 110.111 185.751 110.463 186.023 110.758C186.295 111.049 186.62 111.279 187 111.447C187.38 111.611 187.807 111.694 188.28 111.694C188.754 111.694 189.18 111.604 189.56 111.426C189.945 111.248 190.27 111.004 190.538 110.695C190.81 110.381 191.018 110.022 191.164 109.619C191.314 109.211 191.389 108.782 191.389 108.332C191.389 107.854 191.314 107.408 191.164 106.996C191.018 106.583 190.81 106.229 190.538 105.934C190.27 105.638 189.945 105.406 189.56 105.237C189.18 105.064 188.754 104.977 188.28 104.977C187.896 104.977 187.521 105.055 187.155 105.209C186.789 105.359 186.456 105.58 186.156 105.87C185.856 106.156 185.617 106.508 185.439 106.925C185.261 107.343 185.172 107.811 185.172 108.332ZM183.414 108.332C183.414 107.671 183.54 107.054 183.793 106.482C184.046 105.906 184.391 105.406 184.827 104.984C185.268 104.558 185.784 104.222 186.374 103.979C186.97 103.735 187.605 103.613 188.28 103.613C189.016 103.613 189.682 103.735 190.277 103.979C190.878 104.222 191.389 104.558 191.811 104.984C192.237 105.406 192.568 105.906 192.802 106.482C193.037 107.054 193.154 107.671 193.154 108.332C193.154 108.998 193.027 109.617 192.774 110.189C192.526 110.76 192.181 111.26 191.74 111.686C191.304 112.113 190.791 112.448 190.2 112.692C189.614 112.936 188.974 113.058 188.28 113.058C187.591 113.058 186.951 112.943 186.36 112.713C185.769 112.479 185.256 112.153 184.82 111.736C184.384 111.318 184.039 110.821 183.786 110.245C183.538 109.663 183.414 109.026 183.414 108.332ZM198.787 103.796H200.503L202.704 111.046H202.732L205.257 103.796H206.973L208.309 112.875L206.6 113.058L205.925 105.892H205.897L203.583 112.875H201.853L199.765 105.892H199.743L198.801 113.058L197.184 112.875L198.787 103.796ZM210.736 113.058L209.174 112.587L212.67 103.796H214.21L217.452 112.587L215.813 113.058L214.92 110.463H211.755L210.736 113.058ZM213.415 105.554H213.387L212.241 109.091H214.463L213.415 105.554ZM218.781 103.796H221.657C222.206 103.796 222.675 103.866 223.064 104.007C223.453 104.143 223.772 104.33 224.02 104.569C224.274 104.804 224.456 105.08 224.569 105.399C224.681 105.718 224.738 106.058 224.738 106.419C224.738 107 224.578 107.493 224.26 107.896C223.941 108.294 223.514 108.59 222.98 108.782L225.568 112.165L224.07 113.058L221.545 109.556C221.4 109.345 221.2 109.239 220.947 109.239H220.42L220.406 112.875H218.69L218.781 103.796ZM221.482 107.875C221.608 107.875 221.756 107.858 221.925 107.826C222.098 107.788 222.262 107.72 222.417 107.622C222.572 107.518 222.703 107.375 222.811 107.193C222.923 107.01 222.98 106.771 222.98 106.475C222.98 106.025 222.83 105.695 222.529 105.484C222.234 105.268 221.873 105.16 221.446 105.16H220.476L220.448 107.875H221.482ZM226.77 103.796H228.451L228.423 108.029H228.493L232.206 103.613L233.451 104.612L230.209 108.191L233.416 112.087L232.052 113.058L228.451 108.494H228.423L228.388 112.875H226.707L226.77 103.796ZM234.816 103.796H239.668V105.237H236.489L236.468 107.579H239.619V108.944H236.454L236.44 111.433H239.668V112.875H234.724L234.816 103.796ZM243.023 105.237H240.477L240.491 103.796H247.221L247.207 105.237H244.697L244.633 112.875H242.959L243.023 105.237Z" fill="#565656"/>
</svg>
