<svg width="24" height="25" viewBox="0 0 24 25" fill="none" xmlns="http://www.w3.org/2000/svg">
    <path
        d="M11.928 24.3489C8.79048 24.3524 5.78008 23.1093 3.55909 20.8932C1.3381 18.6771 0.0884159 15.6694 0.0849681 12.5319C0.0815203 9.39441 1.32466 6.38408 3.54078 4.16309C5.7569 1.94209 8.76435 0.692413 11.9019 0.688965H11.937C15.0745 0.68976 18.083 1.93689 20.301 4.15601C22.519 6.37512 23.7647 9.3844 23.7639 12.5219C23.7631 15.6594 22.516 18.6681 20.2969 20.8861C18.0778 23.1041 15.0684 24.3497 11.9309 24.3489H11.928ZM0.855964 12.525C0.862825 15.459 2.03102 18.2709 4.10523 20.3461C6.17944 22.4212 8.99103 23.5908 11.9251 23.5989C13.3801 23.5993 14.8209 23.3131 16.1653 22.7567C17.5097 22.2002 18.7314 21.3844 19.7605 20.3558C20.7897 19.3272 21.6062 18.106 22.1633 16.7618C22.7205 15.4177 23.0077 13.977 23.0081 12.5219C23.0085 11.0669 22.7222 9.62599 22.1658 8.28156C21.6093 6.93712 20.7935 5.71549 19.7649 4.68634C18.7363 3.65719 17.515 2.84069 16.1709 2.28351C14.8268 1.72632 13.386 1.43936 11.9309 1.43896H11.898C8.96572 1.45166 6.15792 2.6251 4.08863 4.70264C2.01934 6.78018 0.856994 9.5927 0.855964 12.525ZM11.9099 23.2139H11.9028C9.29478 23.1906 6.78249 22.2286 4.82593 20.504C4.61205 20.3417 4.4559 20.1153 4.38013 19.8577C4.30437 19.6002 4.31307 19.3251 4.40504 19.0729C4.8452 17.4023 5.82756 15.925 7.19801 14.873C8.56845 13.821 10.2494 13.2537 11.9771 13.2603C13.7047 13.2668 15.3812 13.8467 16.7437 14.909C18.1061 15.9713 19.0773 17.456 19.5049 19.1299C19.5824 19.3595 19.5865 19.6075 19.5169 19.8395C19.4472 20.0715 19.3071 20.2761 19.116 20.4249C17.1397 22.2069 14.577 23.1996 11.916 23.2139H11.9099ZM12.01 13.9899C10.4386 13.9739 8.90719 14.4851 7.66041 15.4417C6.41363 16.3982 5.52328 17.745 5.13184 19.2669C5.07636 19.3825 5.06502 19.5144 5.09962 19.6379C5.13421 19.7614 5.21236 19.868 5.31983 19.9379C7.1429 21.5443 9.48317 22.4409 11.9128 22.4639C14.3953 22.4617 16.7881 21.5348 18.624 19.864C18.712 19.8058 18.7762 19.7181 18.8052 19.6166C18.8342 19.5152 18.826 19.4068 18.782 19.3109C18.4126 17.8071 17.5541 16.4686 16.3413 15.5056C15.1286 14.5427 13.6305 14.0099 12.082 13.991L12.01 13.9899ZM3.85694 19.3229L3.42799 18.8359C1.8755 16.8262 1.10586 14.3209 1.26221 11.7861C1.41857 9.25137 2.49012 6.85966 4.27784 5.05591C6.25751 3.03397 8.95715 1.87793 11.7866 1.84045C14.6161 1.80298 17.3454 2.88716 19.3779 4.85596C21.2461 6.63717 22.3905 9.04571 22.5913 11.6191C22.7921 14.1926 22.0354 16.7495 20.4661 18.799L20.033 19.3179L19.822 18.6749C19.4365 17.4007 18.7522 16.2369 17.8264 15.2803C16.9006 14.3237 15.76 13.6019 14.499 13.1749L13.9561 12.9749L14.364 12.564C16.684 10.226 16.947 7.68695 15.064 5.77295C14.2554 4.95155 13.1554 4.48215 12.0029 4.46661C10.8504 4.45107 9.73839 4.89064 8.90797 5.68994C6.96597 7.57094 7.19297 10.09 9.53297 12.59L9.91602 12.9999L9.39088 13.2C8.13503 13.6428 6.99937 14.3716 6.07349 15.3287C5.14762 16.2859 4.45691 17.4451 4.05592 18.715L3.85694 19.3229ZM11.9351 2.58795C10.6083 2.58566 9.29439 2.84933 8.0713 3.3634C6.84821 3.87748 5.74069 4.63151 4.81397 5.58093C3.23692 7.17394 2.25487 9.26033 2.03223 11.4908C1.8096 13.7214 2.36 15.9606 3.59107 17.8339C4.04273 16.6822 4.72182 15.6333 5.58814 14.7502C6.45447 13.867 7.49023 13.1676 8.63306 12.6939C6.35806 10.0119 6.25803 7.21795 8.39503 5.14795C9.36831 4.2116 10.6715 3.69691 12.022 3.71564C13.3724 3.73436 14.661 4.28495 15.6079 5.24792C17.6669 7.34792 17.5299 10.1589 15.2839 12.6859C16.4228 13.1526 17.455 13.846 18.3176 14.7239C19.1803 15.6019 19.8554 16.646 20.302 17.7929C21.5445 15.8832 22.0805 13.5993 21.8171 11.3362C21.5538 9.07318 20.5077 6.97336 18.8599 5.39996C17.0071 3.59332 14.5206 2.58393 11.9329 2.58795H11.9351ZM11.9351 12.775H11.916C10.8772 12.7535 9.88829 12.3243 9.16334 11.5799C8.43839 10.8355 8.03547 9.83579 8.04151 8.79675C8.04755 7.75771 8.46225 6.7628 9.19581 6.02692C9.92937 5.29103 10.9229 4.87329 11.9619 4.86395H11.967C12.4892 4.86113 13.0068 4.96253 13.4893 5.16223C13.9718 5.36193 14.4094 5.65588 14.7769 6.02692C15.148 6.40379 15.4404 6.851 15.6365 7.34229C15.8326 7.83357 15.9286 8.35905 15.919 8.88794C15.9147 9.40537 15.8079 9.91683 15.605 10.3928C15.4021 10.8688 15.107 11.2999 14.7366 11.6613C14.3662 12.0226 13.9279 12.3071 13.447 12.4982C12.9662 12.6894 12.4524 12.7834 11.9351 12.775ZM11.919 12.025H11.9351C12.3544 12.0326 12.7709 11.9571 13.1609 11.8029C13.5509 11.6487 13.9066 11.4187 14.2073 11.1263C14.508 10.8339 14.7478 10.4849 14.9128 10.0993C15.0779 9.71374 15.1649 9.29933 15.169 8.87994C15.177 8.45014 15.0994 8.02305 14.9404 7.62366C14.7814 7.22426 14.5442 6.8606 14.2429 6.55396C13.945 6.25366 13.5902 6.01584 13.1992 5.85443C12.8082 5.69302 12.3891 5.61127 11.9661 5.61395C11.118 5.61392 10.304 5.94888 9.70167 6.54596C9.09935 7.14303 8.75739 7.95387 8.75001 8.80194C8.74215 9.22314 8.81832 9.64165 8.97437 10.033C9.13042 10.4243 9.36315 10.7805 9.6587 11.0807C9.95425 11.3809 10.3067 11.619 10.6956 11.7812C11.0844 11.9433 11.5016 12.0262 11.9229 12.025H11.919Z"
        fill="#828282" />
</svg>
