<svg width="28" height="29" viewBox="0 0 28 29" fill="none" xmlns="http://www.w3.org/2000/svg">
<path d="M0.104996 13.142C0.176589 12.943 0.261101 12.749 0.357994 12.561C0.489295 12.3423 0.668447 12.1561 0.881996 12.0165C1.09555 11.8769 1.33795 11.7875 1.591 11.755C2.135 11.661 2.681 11.581 3.222 11.475C3.2763 11.4589 3.32669 11.4317 3.37004 11.3952C3.41339 11.3587 3.44878 11.3137 3.474 11.263C3.696 10.759 3.905 10.2494 4.101 9.73402C4.11562 9.68414 4.11988 9.63177 4.11352 9.58018C4.10715 9.52859 4.0903 9.47884 4.064 9.434C3.755 8.976 3.42699 8.53403 3.10899 8.08003C2.82456 7.7342 2.68703 7.29064 2.72591 6.84455C2.7648 6.39847 2.97701 5.9854 3.31699 5.69401C3.81899 5.18868 4.32366 4.68533 4.83099 4.184C5.12638 3.84135 5.54544 3.62965 5.99651 3.59516C6.44759 3.56068 6.89397 3.70624 7.238 4.00001C7.658 4.30001 8.08 4.60001 8.493 4.90901C8.5444 4.9556 8.60922 4.98478 8.67818 4.99232C8.74715 4.99986 8.81674 4.98541 8.877 4.95103C9.354 4.73403 9.836 4.52502 10.326 4.33802C10.3966 4.31762 10.4592 4.27612 10.5055 4.2191C10.5518 4.16208 10.5795 4.09227 10.585 4.01902C10.685 3.40502 10.776 2.787 10.911 2.18C10.9866 1.82747 11.1784 1.51055 11.4557 1.28007C11.7329 1.04959 12.0796 0.918918 12.44 0.909007C13.312 0.883007 14.187 0.880007 15.059 0.909007C15.4508 0.927641 15.8234 1.08438 16.1108 1.35142C16.3982 1.61846 16.5817 1.97859 16.629 2.36802C16.729 2.91102 16.816 3.45602 16.9 4.00102C16.9051 4.0662 16.9304 4.12818 16.9723 4.17836C17.0142 4.22853 17.0708 4.2644 17.134 4.28102C17.656 4.48102 18.1737 4.69402 18.687 4.92002C18.7436 4.95162 18.8086 4.96491 18.873 4.95811C18.9375 4.95131 18.9982 4.92474 19.047 4.88203C19.492 4.55503 19.947 4.23602 20.396 3.92002C20.7283 3.65576 21.1483 3.52702 21.5716 3.55967C21.9949 3.59232 22.3902 3.78393 22.678 4.09602C23.228 4.62935 23.7697 5.17136 24.303 5.72203C24.6145 6.01088 24.8053 6.40692 24.8368 6.83061C24.8683 7.25429 24.7384 7.67423 24.473 8.00602C24.162 8.45202 23.849 8.89603 23.522 9.33003C23.4739 9.3861 23.4447 9.45591 23.4386 9.52952C23.4325 9.60314 23.4498 9.67677 23.488 9.74C23.696 10.211 23.894 10.688 24.078 11.169C24.0978 11.2402 24.1391 11.3037 24.1961 11.3507C24.2532 11.3978 24.3233 11.4261 24.397 11.432C25.003 11.532 25.612 11.619 26.21 11.752C26.5672 11.8273 26.8879 12.0225 27.1189 12.3051C27.35 12.5878 27.4773 12.941 27.48 13.306C27.498 14.144 27.498 14.9817 27.48 15.819C27.4761 16.2248 27.3257 16.6155 27.0565 16.919C26.7873 17.2226 26.4174 17.4187 26.015 17.471C25.463 17.571 24.907 17.647 24.357 17.752C24.3021 17.7656 24.2505 17.7904 24.2056 17.8248C24.1607 17.8592 24.1234 17.9025 24.096 17.952C23.87 18.4547 23.659 18.9637 23.463 19.479C23.4466 19.5329 23.4417 19.5897 23.4484 19.6456C23.4551 19.7016 23.4734 19.7555 23.502 19.804C23.802 20.255 24.128 20.692 24.441 21.136C24.719 21.4755 24.855 21.9093 24.8205 22.3467C24.786 22.7841 24.5838 23.1913 24.256 23.483C23.7447 24.005 23.2283 24.5217 22.707 25.033C22.4156 25.367 22.0053 25.574 21.5635 25.6099C21.1218 25.6457 20.6834 25.5076 20.342 25.225C19.905 24.916 19.467 24.611 19.042 24.291C18.9896 24.2458 18.9243 24.2183 18.8553 24.2124C18.7864 24.2065 18.7173 24.2224 18.658 24.258C18.187 24.467 17.711 24.668 17.229 24.849C17.1533 24.8689 17.0858 24.912 17.036 24.9723C16.9861 25.0326 16.9564 25.107 16.951 25.185C16.871 25.731 16.7803 26.275 16.679 26.817C16.6324 27.1505 16.4867 27.4622 16.2608 27.7119C16.0349 27.9615 15.7392 28.1375 15.412 28.217C15.3716 28.2317 15.3324 28.2498 15.295 28.271H12.295C12.275 28.2541 12.2528 28.24 12.229 28.229C11.8729 28.1538 11.5506 27.966 11.3096 27.6933C11.0686 27.4207 10.9218 27.0776 10.891 26.715C10.811 26.197 10.714 25.681 10.635 25.162C10.6298 25.0932 10.6038 25.0276 10.5604 24.974C10.517 24.9204 10.4582 24.8813 10.392 24.862C9.911 24.679 9.441 24.468 8.959 24.286C8.90551 24.2684 8.84896 24.2619 8.79287 24.2671C8.73678 24.2722 8.68236 24.2889 8.633 24.316C8.167 24.628 7.717 24.962 7.257 25.283C6.91986 25.5557 6.49061 25.6878 6.05851 25.652C5.62641 25.6163 5.22473 25.4154 4.937 25.091C4.409 24.5743 3.88633 24.052 3.369 23.524C3.04239 23.2321 2.84105 22.8254 2.80695 22.3887C2.77286 21.952 2.90864 21.519 3.186 21.18C3.486 20.752 3.79199 20.323 4.10799 19.903C4.15734 19.8484 4.18794 19.7795 4.19532 19.7062C4.2027 19.633 4.18646 19.5594 4.14899 19.496C3.93399 19.028 3.729 18.555 3.549 18.073C3.52772 17.9985 3.48392 17.9323 3.42359 17.8836C3.36326 17.8349 3.28936 17.8061 3.212 17.801C2.667 17.715 2.119 17.64 1.582 17.519C1.29939 17.4516 1.02933 17.3395 0.781998 17.187C0.437637 16.929 0.197106 16.5561 0.103996 16.136L0.104996 13.142ZM25.957 14.6C25.957 14.253 25.944 13.9 25.957 13.558C25.969 13.317 25.866 13.231 25.642 13.196C24.942 13.088 24.242 12.957 23.535 12.847C23.3519 12.829 23.1795 12.7524 23.0433 12.6286C22.9071 12.5049 22.8144 12.3406 22.779 12.16C22.5778 11.3926 22.2722 10.6564 21.871 9.97203C21.7632 9.81205 21.7106 9.62121 21.7213 9.4286C21.7319 9.23599 21.8052 9.05213 21.93 8.90501C22.352 8.33101 22.754 7.742 23.174 7.167C23.204 7.13765 23.227 7.10205 23.2416 7.06272C23.2561 7.02339 23.2618 6.98133 23.2582 6.93956C23.2546 6.89778 23.2417 6.85731 23.2206 6.82109C23.1995 6.78486 23.1706 6.75376 23.136 6.73002C22.636 6.24502 22.145 5.75502 21.662 5.25502C21.6379 5.21818 21.6058 5.18729 21.568 5.16471C21.5303 5.14214 21.4878 5.12846 21.444 5.12471C21.4002 5.12095 21.356 5.12723 21.315 5.14305C21.2739 5.15887 21.237 5.18381 21.207 5.21601C20.635 5.64201 20.05 6.048 19.475 6.469C19.3429 6.58442 19.1776 6.65517 19.0029 6.67115C18.8282 6.68713 18.6529 6.64755 18.502 6.55802C17.7515 6.12974 16.9489 5.8 16.114 5.57701C15.9478 5.53801 15.7981 5.44749 15.6864 5.31837C15.5747 5.18924 15.5067 5.02812 15.492 4.85801C15.379 4.15801 15.243 3.45801 15.141 2.75001C15.104 2.49801 14.998 2.429 14.758 2.434C14.089 2.447 13.42 2.452 12.758 2.434C12.49 2.426 12.399 2.53402 12.358 2.77302C12.258 3.45002 12.126 4.12401 12.026 4.80201C12.0114 5.00345 11.9314 5.19461 11.7982 5.34642C11.665 5.49822 11.4858 5.60237 11.288 5.64302C10.5303 5.84496 9.80437 6.15122 9.131 6.55302C8.97006 6.6596 8.7788 6.71089 8.58612 6.69917C8.39344 6.68744 8.20982 6.61333 8.063 6.48802C7.489 6.06602 6.902 5.66201 6.326 5.24101C6.29857 5.21267 6.26516 5.19082 6.22821 5.17704C6.19126 5.16326 6.1517 5.15791 6.11242 5.16136C6.07314 5.16481 6.03512 5.17696 6.00114 5.19697C5.96716 5.21698 5.93807 5.24434 5.916 5.27702C5.424 5.77702 4.927 6.27702 4.416 6.76902C4.38009 6.7944 4.35035 6.82752 4.32899 6.86595C4.30762 6.90438 4.29519 6.94711 4.29259 6.99101C4.29 7.0349 4.29732 7.07884 4.31401 7.11952C4.3307 7.1602 4.35633 7.1966 4.389 7.22602C4.805 7.79302 5.198 8.37803 5.618 8.94203C5.74298 9.09799 5.81701 9.28858 5.83007 9.48802C5.84313 9.68745 5.79457 9.88609 5.69099 10.057C5.36685 10.7383 5.08172 11.4374 4.837 12.151C4.78922 12.359 4.67695 12.5466 4.51623 12.6871C4.35551 12.8275 4.15454 12.9136 3.94199 12.933C3.27199 13.026 2.60699 13.155 1.94199 13.258C1.72999 13.29 1.642 13.375 1.642 13.605C1.656 14.3004 1.656 14.9953 1.642 15.69C1.642 15.921 1.73199 16 1.94199 16.033C2.65399 16.145 3.363 16.281 4.075 16.391C4.25817 16.4092 4.43073 16.4855 4.56746 16.6087C4.70419 16.732 4.79793 16.8957 4.835 17.076C5.04123 17.8419 5.35038 18.5762 5.754 19.259C5.86346 19.4232 5.9159 19.6189 5.90325 19.8158C5.8906 20.0128 5.81356 20.2001 5.684 20.349C5.271 20.908 4.88399 21.484 4.46899 22.043C4.43751 22.0734 4.41306 22.1102 4.39732 22.151C4.38159 22.1918 4.37497 22.2356 4.37792 22.2792C4.38088 22.3228 4.39333 22.3653 4.41442 22.4036C4.43551 22.4419 4.46472 22.4752 4.5 22.501C5 22.984 5.492 23.475 5.974 23.976C5.99899 24.0122 6.03186 24.0423 6.07013 24.0639C6.1084 24.0856 6.15108 24.0983 6.19497 24.1011C6.23885 24.1038 6.2828 24.0967 6.32351 24.08C6.36422 24.0634 6.40063 24.0377 6.43 24.005C6.982 23.599 7.554 23.219 8.101 22.805C8.26485 22.6684 8.46714 22.5862 8.67982 22.5697C8.89251 22.5532 9.10505 22.6033 9.28799 22.713C9.94322 23.0305 10.6175 23.3071 11.307 23.541C11.514 23.5905 11.7001 23.7042 11.8385 23.8659C11.977 24.0275 12.0608 24.2289 12.078 24.441C12.172 25.12 12.299 25.794 12.406 26.471C12.4054 26.5107 12.4136 26.5501 12.43 26.5863C12.4463 26.6225 12.4704 26.6546 12.5005 26.6805C12.5307 26.7063 12.5662 26.7252 12.6044 26.7359C12.6427 26.7465 12.6828 26.7486 12.722 26.742C13.417 26.732 14.112 26.728 14.807 26.742C15.062 26.748 15.145 26.642 15.18 26.41C15.287 25.71 15.419 25.01 15.531 24.302C15.5499 24.1235 15.6256 23.9558 15.7469 23.8235C15.8683 23.6912 16.0288 23.6013 16.205 23.567C16.972 23.3656 17.7081 23.0608 18.393 22.661C18.5565 22.5506 18.7517 22.497 18.9486 22.5083C19.1456 22.5197 19.3333 22.5955 19.483 22.724C20.049 23.143 20.633 23.536 21.198 23.955C21.2285 23.9867 21.2657 24.011 21.3068 24.0263C21.348 24.0416 21.3921 24.0474 21.4359 24.0433C21.4796 24.0391 21.5218 24.0252 21.5594 24.0025C21.597 23.9797 21.629 23.9488 21.653 23.912C22.1303 23.4187 22.6157 22.9333 23.109 22.456C23.1473 22.4304 23.1794 22.3965 23.2028 22.3567C23.2262 22.3169 23.2403 22.2724 23.244 22.2264C23.2478 22.1805 23.2411 22.1342 23.2245 22.0912C23.2078 22.0482 23.1817 22.0095 23.148 21.978C22.736 21.419 22.348 20.841 21.935 20.278C21.8104 20.1214 21.7368 19.9304 21.7241 19.7307C21.7114 19.5309 21.7603 19.3321 21.864 19.161C22.1954 18.4735 22.4892 17.7685 22.744 17.049C22.7936 16.846 22.9055 16.6636 23.064 16.5275C23.2226 16.3913 23.4198 16.3083 23.628 16.29C24.306 16.19 24.98 16.066 25.658 15.963C25.702 15.9629 25.7454 15.9531 25.7852 15.9343C25.8249 15.9155 25.8601 15.8883 25.8881 15.8544C25.9162 15.8205 25.9364 15.7809 25.9475 15.7383C25.9585 15.6957 25.9601 15.6512 25.952 15.608C25.947 15.278 25.957 14.939 25.957 14.6Z" fill="black"/>
<path d="M13.791 8.677C14.959 8.67602 16.101 9.02141 17.0727 9.66953C18.0443 10.3176 18.802 11.2394 19.2498 12.3181C19.6976 13.3969 19.8154 14.5841 19.5884 15.7298C19.3613 16.8755 18.7996 17.9282 17.9743 18.7546C17.149 19.5811 16.0971 20.1442 14.9517 20.3728C13.8063 20.6014 12.6188 20.4852 11.5395 20.0389C10.4601 19.5925 9.53741 18.8361 8.88798 17.8654C8.23855 16.8946 7.89159 15.753 7.891 14.585C7.89285 13.02 8.51479 11.5196 9.62062 10.4123C10.7265 9.30496 12.2261 8.68097 13.791 8.677ZM9.436 14.587C9.43699 15.4498 9.69363 16.2929 10.1735 17.0099C10.6534 17.7269 11.335 18.2856 12.1322 18.6154C12.9294 18.9453 13.8065 19.0314 14.6527 18.8631C15.4989 18.6948 16.2762 18.2794 16.8865 17.6696C17.4967 17.0597 17.9126 16.2827 18.0815 15.4366C18.2504 14.5906 18.1648 13.7134 17.8355 12.916C17.5062 12.1185 16.948 11.4366 16.2314 10.9562C15.5147 10.4758 14.6718 10.2186 13.809 10.217C12.65 10.2178 11.5386 10.6784 10.7188 11.4977C9.89892 12.3169 9.43759 13.428 9.436 14.587Z" fill="black"/>
</svg>
