<svg width="29" height="27" viewBox="0 0 29 27" fill="none" xmlns="http://www.w3.org/2000/svg">
    <path
        d="M9.98424 12.2932C10.1486 13.0065 10.1486 13.7479 9.98424 14.4612L19.0672 18.4952C19.5158 17.8621 20.106 17.3425 20.7909 16.9779C21.4758 16.6133 22.2364 16.4137 23.0121 16.3952C24.2072 16.3516 25.3764 16.7516 26.2943 17.5182C27.1917 18.2476 27.8088 19.2651 28.0414 20.3979C28.2739 21.5308 28.1072 22.7092 27.5697 23.7332C27.0322 24.7572 26.1571 25.5636 25.0926 26.0156C24.0282 26.4677 22.8399 26.5375 21.7298 26.2132C20.5131 25.8518 19.4777 25.0445 18.8304 23.9527C18.1832 22.8609 17.9722 21.565 18.2391 20.3242C17.8311 20.1412 17.4211 19.9562 17.0091 19.7742C14.4591 18.6412 13.457 18.2022 10.909 17.0642C10.3123 16.7797 9.68054 16.5756 9.03014 16.4572C8.52142 17.1291 7.8481 17.6584 7.07506 17.9941C6.30201 18.3297 5.4553 18.4603 4.61705 18.3732C3.4628 18.2621 2.38265 17.7542 1.5609 16.9361C0.739142 16.1179 0.226878 15.0401 0.110701 13.8864C-0.00547591 12.7326 0.281545 11.5743 0.92369 10.6087C1.56583 9.64318 2.52326 8.93017 3.63219 8.59118C4.59605 8.29608 5.62652 8.30062 6.58775 8.60418C7.54898 8.90775 8.39545 9.49601 9.015 10.2912C9.02968 10.3201 9.0506 10.3456 9.07603 10.3657C9.10147 10.3859 9.13092 10.4004 9.16246 10.408C9.194 10.4157 9.22678 10.4165 9.25865 10.4103C9.29052 10.4041 9.32066 10.3911 9.34703 10.3722C12.2344 9.06419 15.1237 7.7615 18.015 6.46417C18.16 6.39917 18.2261 6.34117 18.1971 6.15417C18.0363 5.14471 18.1884 4.11024 18.6327 3.18966C19.077 2.26909 19.7921 1.50651 20.6825 1.00436C21.5728 0.502205 22.5955 0.284525 23.6131 0.380549C24.6308 0.476573 25.5947 0.881701 26.3753 1.54153C27.156 2.20136 27.7161 3.08428 27.9803 4.07171C28.2446 5.05914 28.2006 6.1038 27.8539 7.06536C27.5071 8.02693 26.8741 8.85935 26.0404 9.45083C25.2067 10.0423 24.2124 10.3645 23.1903 10.3742C22.3988 10.39 21.6149 10.2137 20.9066 9.86032C20.1983 9.50693 19.5862 8.98703 19.1229 8.34518C19.0549 8.25618 19.0111 8.20417 18.8841 8.26217C15.9701 9.58284 13.0547 10.9005 10.138 12.2152C10.088 12.2392 10.0412 12.2642 9.98424 12.2932ZM23.1581 2.36418C22.5641 2.36121 21.9825 2.53463 21.4872 2.86247C20.9918 3.1903 20.6052 3.65779 20.3758 4.2057C20.1465 4.75361 20.085 5.35728 20.1991 5.94021C20.3131 6.52314 20.5975 7.05907 21.0165 7.48013C21.4354 7.90119 21.9698 8.18841 22.5521 8.30538C23.1345 8.42236 23.7384 8.36385 24.2875 8.13723C24.8365 7.91062 25.3063 7.5261 25.6366 7.03243C25.9669 6.53877 26.1429 5.95817 26.1429 5.36419C26.1456 4.97075 26.0706 4.58068 25.9217 4.21649C25.7728 3.8523 25.5533 3.5212 25.2757 3.24229C24.9982 2.96338 24.668 2.74218 24.3045 2.59147C23.9411 2.44076 23.5515 2.36351 23.1581 2.36418ZM26.141 21.3952C26.1384 20.8032 25.961 20.2253 25.6307 19.7341C25.3004 19.2429 24.8318 18.8604 24.2845 18.6348C23.7373 18.4091 23.1356 18.3504 22.555 18.466C21.9745 18.5816 21.4414 18.8664 21.0223 19.2845C20.6033 19.7026 20.317 20.2353 20.2001 20.8155C20.0831 21.3958 20.1407 21.9977 20.3651 22.5454C20.5895 23.0932 20.9709 23.5623 21.4613 23.8938C21.9517 24.2253 22.529 24.4042 23.121 24.4082C23.5184 24.4135 23.9132 24.3393 24.2816 24.1899C24.65 24.0404 24.9846 23.8188 25.266 23.5381C25.5474 23.2573 25.77 22.9231 25.9203 22.555C26.0706 22.187 26.1454 21.7927 26.141 21.3952ZM2.09117 13.3862C2.09141 13.9758 2.26517 14.5523 2.59117 15.0436C2.91717 15.5349 3.38099 15.9193 3.92418 16.1486C4.46736 16.378 5.06589 16.4422 5.64537 16.3333C6.22484 16.2243 6.75921 15.947 7.18199 15.536C7.60477 15.125 7.89704 14.5986 8.02232 14.0224C8.14761 13.4462 8.10051 12.8459 7.88658 12.2965C7.67265 11.747 7.30159 11.2728 6.81969 10.933C6.33778 10.5933 5.76649 10.4031 5.17711 10.3862C4.77575 10.3738 4.37615 10.4424 4.00181 10.5877C3.62748 10.733 3.28583 10.9521 2.99791 11.232C2.70999 11.5119 2.48137 11.8468 2.32555 12.2169C2.16972 12.587 2.09018 12.9846 2.09117 13.3862Z"
        fill="#79A207" />
</svg>
