<svg width="23" height="23" viewBox="0 0 23 23" fill="none" xmlns="http://www.w3.org/2000/svg">
<path d="M5.99998 20.673C5.99998 20.389 5.98698 20.104 5.99998 19.82C6.01498 19.576 5.93597 19.465 5.69297 19.364C4.74442 19.0042 3.88067 18.4518 3.15611 17.7417C2.43154 17.0316 1.86184 16.1791 1.48295 15.238C1.23149 14.4928 1.06707 13.721 0.992961 12.938C0.790353 11.6146 0.746394 10.2718 0.86198 8.93798C0.861418 7.53623 1.14407 6.14882 1.69297 4.85901C2.13628 3.9336 2.77579 3.11581 3.56706 2.46252C4.35833 1.80923 5.28241 1.3361 6.275 1.07599C7.32106 0.844664 8.38422 0.699183 9.45396 0.640988C10.4813 0.548539 11.5139 0.528492 12.544 0.58099C13.9592 0.664889 15.3693 0.820113 16.769 1.04602C18.0052 1.31249 19.1269 1.95986 19.976 2.89703C20.8951 3.71573 21.5472 4.79144 21.848 5.98498C22.3042 8.0109 22.4258 10.0978 22.208 12.163C22.113 12.975 22.008 13.79 21.85 14.592C21.5624 15.7779 20.9219 16.8488 20.013 17.663C19.1764 18.5808 18.0859 19.2292 16.88 19.526C15.88 19.726 14.867 19.826 13.856 19.949C13.3436 20.006 12.8285 20.0361 12.313 20.039C11.64 20.049 10.966 20.015 10.293 20.027C10.1318 20.0344 9.97854 20.0994 9.861 20.21C9.161 20.92 8.47297 21.652 7.77397 22.368C7.68693 22.4848 7.57455 22.5803 7.44523 22.6473C7.31591 22.7143 7.17304 22.7511 7.02745 22.7548C6.88185 22.7586 6.73732 22.7292 6.60472 22.6689C6.47212 22.6087 6.35494 22.5191 6.262 22.407C6.1144 22.1696 6.02687 21.8999 6.007 21.621C5.98264 21.3059 5.97929 20.9895 5.99699 20.674L5.99998 20.673ZM6.85301 19.695V20.706C6.85301 20.969 6.83997 21.234 6.85997 21.496C6.86952 21.6064 6.92023 21.7092 7.00199 21.784C7.03699 21.812 7.17898 21.723 7.26298 21.67C7.32102 21.6248 7.3734 21.5728 7.41899 21.515C8.46299 20.443 9.50301 19.368 10.556 18.305C10.6755 18.1798 10.8358 18.1014 11.008 18.084C12.6279 18.0865 14.2453 17.9594 15.845 17.704C16.7094 17.5769 17.5248 17.2231 18.208 16.6786C18.8913 16.1341 19.4182 15.4183 19.735 14.604C20.0417 13.71 20.2171 12.7763 20.256 11.832C20.4129 10.2057 20.3327 8.56522 20.018 6.96197C19.8771 6.06512 19.4841 5.22686 18.8847 4.54498C18.2853 3.8631 17.5044 3.36578 16.633 3.11102C15.448 2.78475 14.2268 2.60835 12.998 2.586C11.1057 2.46333 9.20563 2.56401 7.33696 2.88598C6.42939 3.01414 5.57474 3.38994 4.8668 3.9721C4.15886 4.55426 3.62501 5.32032 3.32395 6.18603C3.03793 7.0547 2.88849 7.96249 2.88096 8.87701C2.83338 10.0438 2.85242 11.2124 2.93797 12.377C2.96462 13.0705 3.08956 13.7566 3.309 14.415C3.57263 15.1289 3.98944 15.7765 4.53019 16.3121C5.07095 16.8476 5.72253 17.2583 6.43901 17.515C6.71301 17.625 6.881 17.715 6.861 18.06C6.832 18.598 6.85496 19.147 6.85496 19.695H6.85301Z" fill="#141613"/>
<path d="M5.92499 7.27304C6.01425 7.02455 6.12152 6.78288 6.24597 6.55002C6.54767 6.07573 6.98397 5.70216 7.49902 5.47702C7.64324 5.38208 7.81884 5.34739 7.98834 5.38028C8.15784 5.41317 8.30776 5.51106 8.40601 5.65304C8.89149 6.26031 9.34541 6.89215 9.76599 7.54605C9.83715 7.64859 9.88644 7.76469 9.91077 7.88711C9.93509 8.00954 9.93396 8.13563 9.90741 8.2576C9.88086 8.37956 9.82948 8.49474 9.75647 8.59597C9.68345 8.69721 9.59032 8.78235 9.48297 8.84604C8.86797 9.34604 8.83998 9.44604 9.15198 10.179C9.40028 10.8078 9.77666 11.378 10.2571 11.8535C10.7376 12.329 11.3117 12.6993 11.943 12.941C12.1233 13.0469 12.3382 13.077 12.5406 13.0247C12.7431 12.9724 12.9166 12.842 13.023 12.662C13.083 12.589 13.139 12.513 13.202 12.441C13.2663 12.3463 13.3489 12.2656 13.4451 12.2036C13.5413 12.1416 13.649 12.0996 13.7618 12.0802C13.8746 12.0608 13.9901 12.0643 14.1014 12.0906C14.2128 12.1169 14.3178 12.1653 14.41 12.2331C15.025 12.6331 15.624 13.0671 16.21 13.5171C16.3016 13.5721 16.3804 13.6458 16.4413 13.7335C16.5023 13.8213 16.5439 13.921 16.5635 14.026C16.583 14.131 16.5801 14.239 16.5549 14.3427C16.5296 14.4465 16.4826 14.5437 16.417 14.628C16.1281 15.2573 15.6028 15.7474 14.955 15.992C14.7609 16.0578 14.551 16.0609 14.355 16.001C11.2714 15.0163 8.68433 12.8839 7.12903 10.045C6.74203 9.31201 6.41797 8.54504 6.07397 7.79104C6.0115 7.62232 5.96171 7.44917 5.92499 7.27304Z" fill="#141613"/>
<path d="M16.914 10.1911C16.9348 10.3128 16.9318 10.4375 16.905 10.5581C16.843 10.6811 16.729 10.8331 16.613 10.8581C16.5461 10.8508 16.4822 10.8262 16.4277 10.7868C16.3732 10.7473 16.3299 10.6943 16.302 10.6331C16.2321 10.3159 16.1886 9.99346 16.172 9.66909C16.0832 8.6242 15.6369 7.64187 14.9082 6.88772C14.1796 6.13356 13.2132 5.65369 12.172 5.52908C11.911 5.50308 11.653 5.4531 11.394 5.4161C11.201 5.3891 11.041 5.28009 11.107 5.09109C11.154 4.95809 11.345 4.77808 11.462 4.78408C11.9538 4.79915 12.443 4.86349 12.922 4.9761C13.9763 5.23797 14.9216 5.82444 15.6245 6.65273C16.3274 7.48102 16.7522 8.50922 16.839 9.59206C16.861 9.79906 16.891 10.0071 16.914 10.1911Z" fill="#141613"/>
<path d="M15.556 9.78802C15.556 10.147 15.39 10.375 15.181 10.318C15.1174 10.2947 15.0597 10.2574 15.0123 10.209C14.9649 10.1605 14.9289 10.1022 14.907 10.038C14.825 9.68202 14.826 9.30602 14.729 8.95502C14.5688 8.38949 14.2398 7.88623 13.7862 7.51245C13.3326 7.13867 12.7757 6.9121 12.19 6.86298C12.0644 6.86777 11.9394 6.84315 11.825 6.79102C11.709 6.70602 11.557 6.53504 11.579 6.43604C11.609 6.36535 11.6565 6.3034 11.717 6.25616C11.7776 6.20892 11.8491 6.17792 11.925 6.16602C12.7565 6.16839 13.5616 6.45854 14.2034 6.98718C14.8453 7.51583 15.2843 8.25033 15.446 9.06598C15.493 9.32798 15.526 9.58802 15.556 9.78802Z" fill="#141613"/>
<path d="M12.234 7.58305C12.4886 7.57575 12.7419 7.62001 12.9789 7.71312C13.2159 7.80622 13.4316 7.94627 13.6131 8.12486C13.7946 8.30345 13.9381 8.5169 14.035 8.75236C14.1319 8.98783 14.1802 9.24043 14.177 9.49504C14.17 9.70004 14.077 9.88604 13.882 9.86204C13.748 9.84604 13.618 9.67303 13.521 9.54503C13.464 9.47003 13.478 9.34504 13.458 9.24504C13.4386 8.99564 13.3308 8.76134 13.1541 8.58427C12.9774 8.40721 12.7434 8.29899 12.494 8.27904C12.432 8.26704 12.3681 8.26803 12.3061 8.25603C12.1011 8.21903 11.906 8.11303 11.962 7.89403C11.995 7.74803 12.178 7.64205 12.234 7.58305Z" fill="#141613"/>
</svg>
