<svg width="26" height="26" viewBox="0 0 26 26" fill="none" xmlns="http://www.w3.org/2000/svg">
<path fill-rule="evenodd" clip-rule="evenodd" d="M25.851 12.4251C25.7429 9.25362 24.4146 6.24635 22.1429 4.03061C19.8713 1.81486 16.8319 0.561765 13.6587 0.532742C10.4855 0.503719 7.42371 1.70102 5.11194 3.87484C2.80016 6.04867 1.417 9.03115 1.25098 12.2001C1.24498 12.3791 1.23901 12.5571 1.23901 12.7361C1.23683 14.9613 1.84668 17.1443 3.00195 19.0461L0.784058 25.5991L7.60205 23.4321C9.47114 24.4585 11.5745 24.9823 13.7067 24.9525C15.8388 24.9228 17.9267 24.3403 19.7664 23.2621C21.606 22.1839 23.1345 20.6469 24.2024 18.8012C25.2703 16.9556 25.8411 14.8644 25.859 12.7321C25.857 12.6321 25.857 12.5281 25.851 12.4251ZM13.551 23.0061C11.5273 23.0103 9.54718 22.4191 7.85706 21.3061L3.88 22.5731L5.17102 18.7581C3.88931 17.012 3.19869 14.9022 3.19995 12.7361C3.20003 12.4021 3.21739 12.0683 3.25195 11.7361C3.52198 9.17462 4.73696 6.80569 6.65967 5.09182C8.58238 3.37796 11.0748 2.4422 13.6504 2.46719C16.226 2.49218 18.6998 3.47611 20.5889 5.22696C22.478 6.9778 23.6467 9.36988 23.8669 11.9361C23.8899 12.2011 23.902 12.4661 23.902 12.7361C23.888 15.4703 22.7899 18.0872 20.8485 20.0126C18.9072 21.938 16.2812 23.0146 13.547 23.0061H13.551Z" fill="#141613"/>
<path fill-rule="evenodd" clip-rule="evenodd" d="M19.189 15.2021C18.889 15.0531 17.403 14.3261 17.126 14.2291C16.849 14.1321 16.6471 14.0791 16.4461 14.3781C16.2451 14.6771 15.662 15.3521 15.489 15.5481C15.316 15.7441 15.138 15.773 14.832 15.623C13.9426 15.2731 13.1215 14.7698 12.406 14.136C11.7468 13.534 11.1815 12.8366 10.729 12.0671C10.556 11.7671 10.712 11.6061 10.861 11.4561C11.01 11.3061 11.161 11.1051 11.317 10.9321L11.426 10.7881C11.4966 10.6727 11.56 10.5531 11.616 10.4301C11.6571 10.348 11.6765 10.2568 11.6725 10.1651C11.6685 10.0734 11.6412 9.98422 11.593 9.90607C11.518 9.75607 10.913 8.28107 10.66 7.68207C10.407 7.08307 10.16 7.18207 9.97999 7.18207C9.79999 7.18207 9.60497 7.15308 9.40297 7.15308C9.24995 7.15701 9.0994 7.19233 8.96058 7.25684C8.82177 7.32134 8.69764 7.41365 8.59596 7.52808C8.25589 7.84843 7.98656 8.23625 7.80507 8.66675C7.62357 9.09725 7.53394 9.56095 7.542 10.0281C7.54703 10.3736 7.59953 10.7168 7.69801 11.0481C7.93442 11.7968 8.29884 12.4988 8.77504 13.123C10.0327 15.0856 11.8184 16.6537 13.927 17.6471C16.999 18.8401 16.999 18.4471 17.552 18.3901C17.9729 18.3113 18.3721 18.1436 18.723 17.8982C19.074 17.6528 19.3686 17.3353 19.587 16.967C19.7852 16.5202 19.8471 16.0249 19.765 15.5431C19.69 15.4271 19.489 15.3521 19.189 15.2021Z" fill="#141613"/>
</svg>
