<svg width="24" height="17" viewBox="0 0 24 17" fill="none" xmlns="http://www.w3.org/2000/svg">
<path d="M22.536 2.72705C22.4097 2.25133 22.1606 1.81717 21.8136 1.46808C21.4666 1.11899 21.0339 0.867218 20.559 0.738037C18.816 0.267037 11.8261 0.26709 11.8261 0.26709C11.8261 0.26709 4.83504 0.267037 3.09204 0.738037C2.61723 0.867278 2.18471 1.11911 1.83789 1.4682C1.49108 1.8173 1.24209 2.2514 1.11597 2.72705C0.493407 6.31021 0.493407 9.97391 1.11597 13.5571C1.24222 14.0328 1.49123 14.4669 1.83802 14.8162C2.1848 15.1654 2.61725 15.4175 3.09204 15.5471C4.83504 16.0171 11.8261 16.0171 11.8261 16.0171C11.8261 16.0171 18.816 16.0171 20.559 15.5471C21.0339 15.4175 21.4665 15.1655 21.8135 14.8163C22.1604 14.4671 22.4096 14.0328 22.536 13.5571C23.1587 9.97392 23.1587 6.3102 22.536 2.72705ZM9.53601 11.4661V4.81805L15.3781 8.14209L9.53601 11.4661Z" fill="#141613"/>
</svg>
